<?xml version="1.0" encoding="UTF-8"?>
<svg version="1.1" xmlns="http://www.w3.org/2000/svg" width="1621" height="1221">
<path d="M0 0 C534.93 0 1069.86 0 1621 0 C1621 402.93 1621 805.86 1621 1221 C1086.07 1221 551.14 1221 0 1221 C0 818.07 0 415.14 0 0 Z " fill="#FEFEFE" transform="translate(0,0)"/>
<path d="M0 0 C4.5248412 0.00461322 9.04941241 -0.00224016 13.57421875 -0.02050781 C54.29932489 -0.18327654 94.55627696 1.78253545 134.98242188 6.7565918 C138.16193953 7.14563837 141.34225992 7.52686515 144.5234375 7.90209961 C169.68346329 10.8721186 194.73941156 14.20114659 219.56933594 19.31567383 C220.42366211 19.48993896 221.27798828 19.6642041 222.15820312 19.84375 C248.82208837 25.29904726 275.26248063 31.3498641 301.56933594 38.31567383 C303.60708811 38.84825745 305.64484789 39.38081197 307.68261719 39.91333008 C318.56009993 42.78666305 329.22676332 46.09348528 339.87402344 49.72583008 C343.64870376 51.01337038 347.4385367 52.22502832 351.25683594 53.37817383 C368.88216376 58.7246743 386.72414506 64.41421445 403.69433594 71.58911133 C405.63032155 72.33930575 407.54662007 72.85514477 409.56933594 73.31567383 C409.56933594 73.97567383 409.56933594 74.63567383 409.56933594 75.31567383 C410.17519531 75.41364258 410.78105469 75.51161133 411.40527344 75.61254883 C417.89644146 76.77097266 423.53046974 78.71782195 429.56933594 81.31567383 C431.09342471 81.95005215 432.6182309 82.58270829 434.14355469 83.21411133 C435.8273292 83.91419757 437.51092111 84.61472314 439.19433594 85.31567383 C439.99411865 85.64776855 440.79390137 85.97986328 441.61791992 86.32202148 C446.04590606 88.18205901 450.36942986 90.16285073 454.64892578 92.3425293 C457.75888536 93.91846356 460.91146667 95.40114587 464.06933594 96.87817383 C465.04652588 97.33595215 465.04652588 97.33595215 466.04345703 97.80297852 C469.38684749 99.35404455 472.72560015 100.81930298 476.19433594 102.06567383 C479.30131801 103.21640793 481.76210454 104.58814682 484.56933594 106.31567383 C486.26144339 107.03879667 487.9539072 107.76111219 489.64916992 108.47680664 C492.76774869 109.83922707 495.78874644 111.39535598 498.81933594 112.94067383 C503.37831753 115.25140541 507.952489 117.51133059 512.58886719 119.66333008 C513.42836914 120.05375488 514.26787109 120.44417969 515.1328125 120.84643555 C516.75567002 121.59761755 518.38119302 122.34307728 520.00976562 123.08178711 C524.97781407 125.38511637 529.15471243 128.0811972 533.56933594 131.31567383 C536.82762474 132.62699009 536.82762474 132.62699009 539.56933594 133.31567383 C539.56933594 133.97567383 539.56933594 134.63567383 539.56933594 135.31567383 C540.43558594 135.5812207 541.30183594 135.84676758 542.19433594 136.12036133 C545.54176543 137.30590927 548.45843973 138.73444249 551.56933594 140.44067383 C552.6946875 141.0568457 553.82003906 141.67301758 554.97949219 142.30786133 C559.80751515 144.99496907 564.59704425 147.74887679 569.37792969 150.51879883 C572.39897097 152.21975231 575.45493791 153.79370556 578.56933594 155.31567383 C578.56933594 155.97567383 578.56933594 156.63567383 578.56933594 157.31567383 C579.6328125 157.71206055 579.6328125 157.71206055 580.71777344 158.11645508 C588.98811217 161.59452904 596.55279163 166.8957888 604.07714844 171.73754883 C607.18629024 173.70634709 610.35287711 175.52875226 613.56933594 177.31567383 C613.56933594 177.97567383 613.56933594 178.63567383 613.56933594 179.31567383 C614.14031006 179.42492187 614.71128418 179.53416992 615.29956055 179.64672852 C617.88336488 180.40822404 619.65490453 181.51160117 621.88574219 183.01879883 C623.14221558 183.8618457 623.14221558 183.8618457 624.42407227 184.72192383 C625.31763428 185.33036133 626.21119629 185.93879883 627.13183594 186.56567383 C628.05697998 187.18958008 628.98212402 187.81348633 629.93530273 188.45629883 C632.8175998 190.40318022 635.69383935 192.35876591 638.56933594 194.31567383 C640.3453393 195.51885537 642.12137954 196.72198249 643.89746094 197.92504883 C645.55938287 199.05457535 647.22086117 200.18475495 648.88183594 201.31567383 C649.63859619 201.83033203 650.39535645 202.34499023 651.17504883 202.87524414 C657.91519681 207.49012023 664.44495202 212.30091953 670.69433594 217.56567383 C674.83218205 220.97768229 679.06474421 224.16506981 683.44433594 227.25317383 C693.8503457 234.59800784 703.7831698 242.39112196 713.45996094 250.67114258 C716.2517677 253.05688396 719.08944869 255.38058015 721.94433594 257.69067383 C731.69000792 265.629484 741.14347796 273.93344224 750.42089844 282.41333008 C751.97100229 283.78587658 753.56446328 285.10999072 755.18261719 286.40161133 C757.84289041 288.53505466 760.15946386 290.90580175 762.56933594 293.31567383 C763.71402344 294.15098633 763.71402344 294.15098633 764.88183594 295.00317383 C765.43871094 295.43629883 765.99558594 295.86942383 766.56933594 296.31567383 C766.56933594 296.97567383 766.56933594 297.63567383 766.56933594 298.31567383 C767.45298828 298.44522461 767.45298828 298.44522461 768.35449219 298.57739258 C771.17998646 299.519224 772.15361311 300.8212752 774.00683594 303.12817383 C776.64700179 306.29186937 779.28416644 308.80857079 782.56933594 311.31567383 C786.32315415 314.87192266 789.6787909 318.7042105 793.01855469 322.64379883 C794.48284061 324.41893746 794.48284061 324.41893746 796.56933594 325.31567383 C796.09728474 329.56413458 793.68056071 331.58386671 790.56933594 334.31567383 C789.90933594 334.31567383 789.24933594 334.31567383 788.56933594 334.31567383 C788.30121094 334.95504883 788.03308594 335.59442383 787.75683594 336.25317383 C786.56933594 338.31567383 786.56933594 338.31567383 783.56933594 339.31567383 C783.23933594 340.30567383 782.90933594 341.29567383 782.56933594 342.31567383 C781.90933594 342.31567383 781.24933594 342.31567383 780.56933594 342.31567383 C780.30121094 342.95504883 780.03308594 343.59442383 779.75683594 344.25317383 C778.56933594 346.31567383 778.56933594 346.31567383 775.56933594 347.31567383 C775.23933594 348.30567383 774.90933594 349.29567383 774.56933594 350.31567383 C773.90933594 350.31567383 773.24933594 350.31567383 772.56933594 350.31567383 C772.30121094 350.95504883 772.03308594 351.59442383 771.75683594 352.25317383 C770.56933594 354.31567383 770.56933594 354.31567383 767.56933594 355.31567383 C767.23933594 356.30567383 766.90933594 357.29567383 766.56933594 358.31567383 C765.90933594 358.31567383 765.24933594 358.31567383 764.56933594 358.31567383 C764.30121094 358.95504883 764.03308594 359.59442383 763.75683594 360.25317383 C762.56933594 362.31567383 762.56933594 362.31567383 759.56933594 363.31567383 C759.23933594 364.30567383 758.90933594 365.29567383 758.56933594 366.31567383 C757.90933594 366.31567383 757.24933594 366.31567383 756.56933594 366.31567383 C756.30121094 366.95504883 756.03308594 367.59442383 755.75683594 368.25317383 C754.56933594 370.31567383 754.56933594 370.31567383 751.56933594 371.31567383 C751.23933594 372.30567383 750.90933594 373.29567383 750.56933594 374.31567383 C749.90933594 374.31567383 749.24933594 374.31567383 748.56933594 374.31567383 C748.30121094 374.95504883 748.03308594 375.59442383 747.75683594 376.25317383 C746.56933594 378.31567383 746.56933594 378.31567383 743.56933594 379.31567383 C743.23933594 380.30567383 742.90933594 381.29567383 742.56933594 382.31567383 C741.90933594 382.31567383 741.24933594 382.31567383 740.56933594 382.31567383 C740.30121094 382.95504883 740.03308594 383.59442383 739.75683594 384.25317383 C738.56933594 386.31567383 738.56933594 386.31567383 735.56933594 387.31567383 C735.23933594 388.30567383 734.90933594 389.29567383 734.56933594 390.31567383 C733.90933594 390.31567383 733.24933594 390.31567383 732.56933594 390.31567383 C732.30121094 390.95504883 732.03308594 391.59442383 731.75683594 392.25317383 C730.56933594 394.31567383 730.56933594 394.31567383 727.56933594 395.31567383 C727.23933594 396.30567383 726.90933594 397.29567383 726.56933594 398.31567383 C725.90933594 398.31567383 725.24933594 398.31567383 724.56933594 398.31567383 C724.30121094 398.95504883 724.03308594 399.59442383 723.75683594 400.25317383 C722.56933594 402.31567383 722.56933594 402.31567383 719.56933594 403.31567383 C719.23933594 404.30567383 718.90933594 405.29567383 718.56933594 406.31567383 C717.90933594 406.31567383 717.24933594 406.31567383 716.56933594 406.31567383 C716.30121094 406.95504883 716.03308594 407.59442383 715.75683594 408.25317383 C714.56933594 410.31567383 714.56933594 410.31567383 711.56933594 411.31567383 C711.23933594 412.30567383 710.90933594 413.29567383 710.56933594 414.31567383 C709.90933594 414.31567383 709.24933594 414.31567383 708.56933594 414.31567383 C708.30121094 414.95504883 708.03308594 415.59442383 707.75683594 416.25317383 C706.56933594 418.31567383 706.56933594 418.31567383 703.56933594 419.31567383 C703.23933594 420.30567383 702.90933594 421.29567383 702.56933594 422.31567383 C701.90933594 422.31567383 701.24933594 422.31567383 700.56933594 422.31567383 C700.30121094 422.95504883 700.03308594 423.59442383 699.75683594 424.25317383 C698.56933594 426.31567383 698.56933594 426.31567383 695.56933594 427.31567383 C695.23933594 428.30567383 694.90933594 429.29567383 694.56933594 430.31567383 C693.90933594 430.31567383 693.24933594 430.31567383 692.56933594 430.31567383 C692.30121094 430.95504883 692.03308594 431.59442383 691.75683594 432.25317383 C690.56933594 434.31567383 690.56933594 434.31567383 687.56933594 435.31567383 C687.23933594 436.30567383 686.90933594 437.29567383 686.56933594 438.31567383 C685.90933594 438.31567383 685.24933594 438.31567383 684.56933594 438.31567383 C684.30121094 438.95504883 684.03308594 439.59442383 683.75683594 440.25317383 C682.56933594 442.31567383 682.56933594 442.31567383 679.56933594 443.31567383 C679.23933594 444.30567383 678.90933594 445.29567383 678.56933594 446.31567383 C677.90933594 446.31567383 677.24933594 446.31567383 676.56933594 446.31567383 C676.30121094 446.95504883 676.03308594 447.59442383 675.75683594 448.25317383 C674.56933594 450.31567383 674.56933594 450.31567383 671.56933594 451.31567383 C671.23933594 452.30567383 670.90933594 453.29567383 670.56933594 454.31567383 C669.90933594 454.31567383 669.24933594 454.31567383 668.56933594 454.31567383 C668.30121094 454.95504883 668.03308594 455.59442383 667.75683594 456.25317383 C666.56933594 458.31567383 666.56933594 458.31567383 663.56933594 459.31567383 C663.56933594 459.97567383 663.56933594 460.63567383 663.56933594 461.31567383 C659.37753319 460.81227026 657.4782348 458.5304899 654.63183594 455.56567383 C653.7978125 454.70458008 652.96378906 453.84348633 652.10449219 452.95629883 C651.26789063 452.08489258 650.43128906 451.21348633 649.56933594 450.31567383 C646.09446021 446.76126171 646.09446021 446.76126171 642.25683594 443.62817383 C641.69996094 443.19504883 641.14308594 442.76192383 640.56933594 442.31567383 C640.56933594 441.65567383 640.56933594 440.99567383 640.56933594 440.31567383 C639.99699219 440.05786133 639.42464844 439.80004883 638.83496094 439.53442383 C636.35804599 438.20201441 634.43521933 436.66511265 632.31933594 434.81567383 C631.61292969 434.20723633 630.90652344 433.59879883 630.17871094 432.97192383 C628.56933594 431.31567383 628.56933594 431.31567383 628.56933594 429.31567383 C627.90933594 429.31567383 627.24933594 429.31567383 626.56933594 429.31567383 C626.56933594 428.65567383 626.56933594 427.99567383 626.56933594 427.31567383 C625.98667969 427.05141602 625.40402344 426.7871582 624.80371094 426.51489258 C622.48022883 425.26784886 620.77346488 423.89254232 618.81933594 422.12817383 C618.1296875 421.51200195 617.44003906 420.89583008 616.72949219 420.26098633 C615.66021484 419.29805664 615.66021484 419.29805664 614.56933594 418.31567383 C613.13443258 417.04190935 611.69702221 415.77096211 610.25683594 414.50317383 C609.62132812 413.93985352 608.98582031 413.3765332 608.33105469 412.79614258 C606.42840156 411.1418122 606.42840156 411.1418122 603.56933594 409.31567383 C603.56933594 408.65567383 603.56933594 407.99567383 603.56933594 407.31567383 C602.74175781 406.94442383 602.74175781 406.94442383 601.89746094 406.56567383 C599.11796886 405.07332909 596.78786524 403.2789486 594.31933594 401.31567383 C593.42730469 400.61442383 592.53527344 399.91317383 591.61621094 399.19067383 C590.94074219 398.57192383 590.26527344 397.95317383 589.56933594 397.31567383 C589.56933594 396.65567383 589.56933594 395.99567383 589.56933594 395.31567383 C588.54839844 394.97536133 588.54839844 394.97536133 587.50683594 394.62817383 C583.87046504 393.00341236 580.54104331 390.98764126 577.56933594 388.31567383 C577.56933594 387.65567383 577.56933594 386.99567383 577.56933594 386.31567383 C576.88097656 386.09137695 576.19261719 385.86708008 575.48339844 385.63598633 C571.86129138 383.9948708 568.9985984 381.68781111 565.94433594 379.19067383 C564.70466309 378.19697171 563.4637627 377.2047992 562.22167969 376.21411133 C561.6079248 375.72394531 560.99416992 375.2337793 560.36181641 374.72875977 C555.37348277 370.79625158 550.29085013 366.86001012 544.76074219 363.72192383 C544.03757812 363.25786133 543.31441406 362.79379883 542.56933594 362.31567383 C542.56933594 361.65567383 542.56933594 360.99567383 542.56933594 360.31567383 C541.90160156 360.0965332 541.23386719 359.87739258 540.54589844 359.65161133 C536.6235778 357.8911997 533.40317245 355.47266403 529.94433594 352.94067383 C520.73594585 346.31949881 511.21246528 340.27884072 501.56933594 334.31567383 C500.3817697 333.57749912 499.19426362 332.83922763 498.00683594 332.10083008 C490.55493887 327.48905554 483.0415824 322.98078769 475.52050781 318.4831543 C472.15980932 316.4722859 468.80225833 314.45617328 465.44433594 312.44067383 C464.23341243 311.71408801 463.02247569 310.98752424 461.81152344 310.26098633 C459.84914747 309.08356075 457.89377213 307.89420268 455.95214844 306.68286133 C453.64697816 305.28461824 453.64697816 305.28461824 451.33105469 304.42895508 C447.18929258 302.75936215 443.31807591 300.60501592 439.38183594 298.50317383 C432.81875048 295.02148737 426.24578498 291.57666436 419.56933594 288.31567383 C419.56933594 287.65567383 419.56933594 286.99567383 419.56933594 286.31567383 C418.32796875 286.18612305 418.32796875 286.18612305 417.06152344 286.05395508 C412.83686675 285.16082296 409.49500973 283.49762265 405.69433594 281.50317383 C405.0253125 281.15963867 404.35628906 280.81610352 403.66699219 280.4621582 C400.91380922 279.04843323 398.16530065 277.62584083 395.41992188 276.19702148 C394.72415039 275.84043457 394.02837891 275.48384766 393.31152344 275.11645508 C392.68874512 274.79459229 392.0659668 274.47272949 391.42431641 274.14111328 C389.49440607 273.28233112 387.62920743 272.76756988 385.56933594 272.31567383 C385.56933594 271.65567383 385.56933594 270.99567383 385.56933594 270.31567383 C384.70308594 270.19192383 383.83683594 270.06817383 382.94433594 269.94067383 C379.6741974 269.33509262 376.69676695 268.43261348 373.56933594 267.31567383 C373.56933594 266.65567383 373.56933594 265.99567383 373.56933594 265.31567383 C372.70308594 265.21254883 371.83683594 265.10942383 370.94433594 265.00317383 C367.35300625 264.27160667 364.8263966 262.97613613 361.56933594 261.31567383 C360.05547372 260.79494817 358.53397631 260.29606567 357.00683594 259.81567383 C354.42040377 258.99076523 352.45813974 258.2472454 350.13183594 256.81567383 C347.04482958 255.00864572 343.99995914 254.17696642 340.55761719 253.25708008 C337.97130137 252.44230607 335.52725911 251.51309028 333.01855469 250.49145508 C327.10716165 248.09366992 321.10273389 246.0084749 315.06933594 243.94067383 C313.3486792 243.34923584 313.3486792 243.34923584 311.59326172 242.74584961 C309.29836687 241.95837623 307.00296858 241.17236823 304.70703125 240.38793945 C302.80458279 239.73780301 300.90271955 239.08594601 299.00195312 238.4309082 C285.98646341 233.9458784 272.80706891 230.08764142 259.56933594 226.31567383 C258.78623047 226.09024902 258.003125 225.86482422 257.19628906 225.63256836 C231.65539016 218.28353613 205.74757715 211.93401356 179.56933594 207.31567383 C178.7967041 207.17693848 178.02407227 207.03820312 177.22802734 206.89526367 C88.46799054 191.06333577 -3.22164661 186.86345701 -118.43066406 200.31567383 C-119.25427429 200.42564697 -120.07788452 200.53562012 -120.92645264 200.64892578 C-126.51372538 201.39500849 -132.09819361 202.15949014 -137.68066406 202.94067383 C-138.74155746 203.08795929 -138.74155746 203.08795929 -139.82388306 203.23822021 C-147.85484637 204.36228761 -155.78314406 205.73785105 -163.70117188 207.4987793 C-167.92916591 208.42486388 -172.16918176 209.2731018 -176.41503906 210.11254883 C-195.29615653 213.87152531 -213.92863573 217.94610316 -232.43066406 223.31567383 C-236.33417028 224.4315721 -240.23842206 225.54441885 -244.14550781 226.64770508 C-253.79875402 229.38034753 -263.41416202 232.19338904 -272.97753906 235.22583008 C-276.6154164 236.37398367 -280.26523807 237.47226661 -283.92675781 238.54223633 C-291.17814026 240.78213293 -298.28560557 243.34238209 -305.36816406 246.06567383 C-306.27695312 246.413479 -307.18574219 246.76128418 -308.12207031 247.11962891 C-314.06481321 249.397301 -319.99964333 251.69517191 -325.93066406 254.00317383 C-327.02894531 254.4301355 -327.02894531 254.4301355 -328.14941406 254.86572266 C-331.54792227 256.18817561 -334.9434044 257.51742694 -338.33300781 258.86254883 C-339.49960937 259.32145508 -340.66621094 259.78036133 -341.86816406 260.25317383 C-342.8775 260.65407227 -343.88683594 261.0549707 -344.92675781 261.46801758 C-347.43066406 262.31567383 -347.43066406 262.31567383 -350.43066406 262.31567383 C-350.43066406 262.97567383 -350.43066406 263.63567383 -350.43066406 264.31567383 C-351.3884375 264.65598633 -352.34621094 264.99629883 -353.33300781 265.34692383 C-361.76350317 268.39836755 -369.89428702 271.79460892 -377.93237305 275.7746582 C-383.12894813 278.31567383 -383.12894813 278.31567383 -386.43066406 278.31567383 C-386.43066406 278.97567383 -386.43066406 279.63567383 -386.43066406 280.31567383 C-388.41066406 280.64567383 -390.39066406 280.97567383 -392.43066406 281.31567383 C-392.43066406 281.97567383 -392.43066406 282.63567383 -392.43066406 283.31567383 C-392.94975342 283.54230713 -393.46884277 283.76894043 -394.00366211 284.00244141 C-396.37670692 285.04086358 -398.747438 286.08446945 -401.11816406 287.12817383 C-401.93478516 287.48459961 -402.75140625 287.84102539 -403.59277344 288.20825195 C-406.9638876 289.69590962 -410.17301309 291.15885792 -413.32519531 293.07739258 C-415.43066406 294.31567383 -415.43066406 294.31567383 -418.43066406 294.31567383 C-418.43066406 294.97567383 -418.43066406 295.63567383 -418.43066406 296.31567383 C-419.48125 296.83516602 -420.53183594 297.3546582 -421.61425781 297.88989258 C-423.03228153 298.594209 -424.45024715 299.29864241 -425.86816406 300.00317383 C-426.55587891 300.3428418 -427.24359375 300.68250977 -427.95214844 301.0324707 C-433.19990575 303.64414527 -438.32173492 306.44346333 -443.43066406 309.31567383 C-446.84413522 311.21729847 -450.26193126 313.11102879 -453.68066406 315.00317383 C-454.55207031 315.48850586 -455.42347656 315.97383789 -456.32128906 316.47387695 C-457.16691406 316.94116211 -458.01253906 317.40844727 -458.88378906 317.88989258 C-459.63821289 318.30843506 -460.39263672 318.72697754 -461.16992188 319.15820312 C-463.54087603 320.37210093 -465.94429565 321.36369826 -468.43066406 322.31567383 C-468.43066406 322.97567383 -468.43066406 323.63567383 -468.43066406 324.31567383 C-469.06230469 324.64438477 -469.69394531 324.9730957 -470.34472656 325.31176758 C-476.63813241 328.65797328 -482.64596084 332.28927628 -488.56982422 336.24316406 C-491.75988021 338.34768301 -494.82232867 340.04532354 -498.43066406 341.31567383 C-498.43066406 341.97567383 -498.43066406 342.63567383 -498.43066406 343.31567383 C-507.84068684 348.68697223 -507.84068684 348.68697223 -512.43066406 350.31567383 C-512.43066406 350.97567383 -512.43066406 351.63567383 -512.43066406 352.31567383 C-516.81527945 355.31567383 -516.81527945 355.31567383 -519.43066406 355.31567383 C-519.43066406 355.97567383 -519.43066406 356.63567383 -519.43066406 357.31567383 C-520.09066406 357.31567383 -520.75066406 357.31567383 -521.43066406 357.31567383 C-521.43066406 357.97567383 -521.43066406 358.63567383 -521.43066406 359.31567383 C-522.37941406 359.83129883 -523.32816406 360.34692383 -524.30566406 360.87817383 C-528.51649764 363.26345174 -532.38665037 366.07685221 -536.29394531 368.92504883 C-538.43066406 370.31567383 -538.43066406 370.31567383 -540.43066406 370.31567383 C-540.43066406 370.97567383 -540.43066406 371.63567383 -540.43066406 372.31567383 C-545.84242877 376.31567383 -545.84242877 376.31567383 -548.43066406 376.31567383 C-548.43066406 376.97567383 -548.43066406 377.63567383 -548.43066406 378.31567383 C-549.75066406 378.64567383 -551.07066406 378.97567383 -552.43066406 379.31567383 C-552.43066406 379.97567383 -552.43066406 380.63567383 -552.43066406 381.31567383 C-553.09066406 381.31567383 -553.75066406 381.31567383 -554.43066406 381.31567383 C-554.43066406 381.97567383 -554.43066406 382.63567383 -554.43066406 383.31567383 C-556.04785156 384.54223633 -556.04785156 384.54223633 -558.30566406 385.94067383 C-564.93319104 390.20942742 -570.95688836 395.1849127 -576.93066406 400.31567383 C-579.43066406 402.31567383 -579.43066406 402.31567383 -581.43066406 402.31567383 C-581.43066406 402.97567383 -581.43066406 403.63567383 -581.43066406 404.31567383 C-585.9012523 408.31567383 -585.9012523 408.31567383 -588.43066406 408.31567383 C-588.43066406 408.97567383 -588.43066406 409.63567383 -588.43066406 410.31567383 C-589.09066406 410.31567383 -589.75066406 410.31567383 -590.43066406 410.31567383 C-590.76066406 411.30567383 -591.09066406 412.29567383 -591.43066406 413.31567383 C-593.14550781 414.82348633 -593.14550781 414.82348633 -595.36816406 416.44067383 C-599.97463932 419.8881481 -604.16871229 423.66010401 -608.36425781 427.59301758 C-610.43066406 429.31567383 -610.43066406 429.31567383 -612.43066406 429.31567383 C-612.76066406 430.30567383 -613.09066406 431.29567383 -613.43066406 432.31567383 C-615.17285156 434.03442383 -615.17285156 434.03442383 -617.30566406 435.81567383 C-620.28450937 438.31832704 -620.28450937 438.31832704 -623.06347656 441.03442383 C-624.43066406 442.31567383 -624.43066406 442.31567383 -626.43066406 442.31567383 C-626.76066406 443.30567383 -627.09066406 444.29567383 -627.43066406 445.31567383 C-628.09066406 445.31567383 -628.75066406 445.31567383 -629.43066406 445.31567383 C-629.43066406 445.97567383 -629.43066406 446.63567383 -629.43066406 447.31567383 C-631.07417864 448.67744305 -632.74589062 450.00529449 -634.43066406 451.31567383 C-637.05089658 453.87040053 -639.55773592 456.45824225 -641.99316406 459.19067383 C-644.43066406 461.31567383 -644.43066406 461.31567383 -646.43066406 461.50317383 C-648.87297975 460.05304889 -650.35180683 458.15039788 -652.07910156 455.92504883 C-653.58014661 454.04150144 -653.58014661 454.04150144 -656.43066406 451.81567383 C-659.43066406 449.31567383 -659.43066406 449.31567383 -661.86816406 446.37817383 C-663.84105405 444.02032969 -665.53742052 442.300015 -667.86816406 440.37817383 C-670.951992 437.82834207 -673.4221623 435.0520483 -675.96191406 431.97192383 C-678.19252983 429.4565486 -680.84725929 427.45935013 -683.43066406 425.31567383 C-684.23503906 424.34629883 -685.03941406 423.37692383 -685.86816406 422.37817383 C-687.84105405 420.02032969 -689.53742052 418.300015 -691.86816406 416.37817383 C-694.951992 413.82834207 -697.4221623 411.0520483 -699.96191406 407.97192383 C-702.19252983 405.4565486 -704.84725929 403.45935013 -707.43066406 401.31567383 C-708.23503906 400.34629883 -709.03941406 399.37692383 -709.86816406 398.37817383 C-711.84105405 396.02032969 -713.53742052 394.300015 -715.86816406 392.37817383 C-718.951992 389.82834207 -721.4221623 387.0520483 -723.96191406 383.97192383 C-726.19252983 381.4565486 -728.84725929 379.45935013 -731.43066406 377.31567383 C-732.63722656 375.86161133 -732.63722656 375.86161133 -733.86816406 374.37817383 C-735.84105405 372.02032969 -737.53742052 370.300015 -739.86816406 368.37817383 C-742.951992 365.82834207 -745.4221623 363.0520483 -747.96191406 359.97192383 C-750.19252983 357.4565486 -752.84725929 355.45935013 -755.43066406 353.31567383 C-756.63722656 351.86161133 -756.63722656 351.86161133 -757.86816406 350.37817383 C-759.82818227 348.03571304 -761.49060987 346.34324621 -763.80566406 344.44067383 C-767.17552481 341.65560453 -769.90633424 338.54163271 -772.71972656 335.20629883 C-774.33392979 333.4225674 -775.9746228 331.97889143 -777.86816406 330.50317383 C-779.13660156 329.42036133 -779.13660156 329.42036133 -780.43066406 328.31567383 C-780.43066406 325.31567383 -780.43066406 325.31567383 -779.05566406 323.62817383 C-777.43066406 322.31567383 -777.43066406 322.31567383 -775.43066406 322.31567383 C-775.43066406 321.65567383 -775.43066406 320.99567383 -775.43066406 320.31567383 C-774.77066406 320.31567383 -774.11066406 320.31567383 -773.43066406 320.31567383 C-773.10066406 319.32567383 -772.77066406 318.33567383 -772.43066406 317.31567383 C-770.89941406 315.80786133 -770.89941406 315.80786133 -768.93066406 314.19067383 C-764.79690212 310.70607667 -761.05234917 306.94004557 -757.31347656 303.03833008 C-755.43066406 301.31567383 -755.43066406 301.31567383 -753.43066406 301.31567383 C-753.18058594 300.73043945 -752.93050781 300.14520508 -752.67285156 299.54223633 C-751.26590265 297.02034677 -749.74353602 295.5648132 -747.55566406 293.69067383 C-746.53859375 292.80508789 -746.53859375 292.80508789 -745.50097656 291.90161133 C-743.54399937 290.40249295 -741.6701787 289.32998315 -739.43066406 288.31567383 C-739.43066406 287.65567383 -739.43066406 286.99567383 -739.43066406 286.31567383 C-737.75097656 284.65942383 -737.75097656 284.65942383 -735.55566406 282.81567383 C-733.44030902 281.02634125 -731.39047282 279.27548258 -729.43066406 277.31567383 C-728.44066406 277.31567383 -727.45066406 277.31567383 -726.43066406 277.31567383 C-726.43066406 276.32567383 -726.43066406 275.33567383 -726.43066406 274.31567383 C-724.89160156 272.88598633 -724.89160156 272.88598633 -722.80566406 271.44067383 C-720.11642941 269.53341521 -717.54159994 267.60663776 -715.05566406 265.44067383 C-712.43066406 263.31567383 -712.43066406 263.31567383 -710.43066406 263.31567383 C-710.43066406 262.65567383 -710.43066406 261.99567383 -710.43066406 261.31567383 C-708.71733653 259.7303368 -706.93377359 258.22026168 -705.11816406 256.75317383 C-703.63896484 255.54467773 -703.63896484 255.54467773 -702.12988281 254.31176758 C-699.43066406 252.31567383 -699.43066406 252.31567383 -696.43066406 251.31567383 C-696.43066406 250.65567383 -696.43066406 249.99567383 -696.43066406 249.31567383 C-694.38098873 247.58885198 -692.32950135 245.97254668 -690.18066406 244.37817383 C-689.59414063 243.93538086 -689.00761719 243.49258789 -688.40332031 243.03637695 C-687.26253392 242.17630092 -686.11873765 241.3201997 -684.97167969 240.46850586 C-683.67652557 239.49960254 -682.40248175 238.50257047 -681.13378906 237.49926758 C-679.43066406 236.31567383 -679.43066406 236.31567383 -677.43066406 236.31567383 C-677.43066406 235.65567383 -677.43066406 234.99567383 -677.43066406 234.31567383 C-675.44628906 232.68676758 -675.44628906 232.68676758 -672.68066406 230.75317383 C-668.63893443 227.88684516 -664.63438146 224.98994947 -660.68066406 222.00317383 C-654.22502162 217.14678911 -647.71428456 212.36767706 -641.19091797 207.6027832 C-639.57491127 206.42114835 -637.9616362 205.23578009 -636.34863281 204.05004883 C-616.24352189 189.31567383 -616.24352189 189.31567383 -612.43066406 189.31567383 C-612.43066406 188.65567383 -612.43066406 187.99567383 -612.43066406 187.31567383 C-610.41113281 185.83520508 -610.41113281 185.83520508 -607.61816406 184.12817383 C-606.60496094 183.50168945 -605.59175781 182.87520508 -604.54785156 182.22973633 C-603.51917969 181.5980957 -602.49050781 180.96645508 -601.43066406 180.31567383 C-599.69935413 179.2148708 -597.97014714 178.11075264 -596.24316406 177.00317383 C-583.24800755 168.74354045 -570.15158256 160.67575601 -556.91894531 152.80151367 C-554.45878595 151.33246639 -552.00669129 149.8506772 -549.55566406 148.36645508 C-548.03501086 147.4533946 -546.51418575 146.54062034 -544.99316406 145.62817383 C-544.3016626 145.20600586 -543.61016113 144.78383789 -542.89770508 144.34887695 C-539.43666875 142.28628697 -536.46166966 140.77391917 -532.43066406 140.31567383 C-532.43066406 139.65567383 -532.43066406 138.99567383 -532.43066406 138.31567383 C-515.17833144 129.11715525 -515.17833144 129.11715525 -506.42285156 124.80004883 C-504.16800812 123.68145808 -501.92600316 122.54608525 -499.68847656 121.39379883 C-499.05321045 121.06911621 -498.41794434 120.74443359 -497.76342773 120.40991211 C-495.96197311 119.4886478 -494.16304341 118.56245115 -492.36425781 117.63598633 C-489.43066406 116.31567383 -489.43066406 116.31567383 -486.43066406 116.31567383 C-486.43066406 115.65567383 -486.43066406 114.99567383 -486.43066406 114.31567383 C-483.52466145 113.05902405 -481.63461822 112.31567383 -478.43066406 112.31567383 C-478.43066406 111.65567383 -478.43066406 110.99567383 -478.43066406 110.31567383 C-477.72683594 110.03594727 -477.02300781 109.7562207 -476.29785156 109.46801758 C-469.1957007 106.58450724 -462.37292441 103.36227157 -455.55957031 99.86645508 C-452.8769899 98.53688651 -450.2142118 97.40795205 -447.43066406 96.31567383 C-445.40506324 95.38851963 -443.38456957 94.45015981 -441.36816406 93.50317383 C-435.1167305 90.60769958 -428.81534682 87.90250938 -422.43066406 85.31567383 C-421.69928223 85.01902832 -420.96790039 84.72238281 -420.21435547 84.41674805 C-410.84085726 80.62158749 -401.44719285 76.90379412 -391.96044922 73.40063477 C-387.94506635 71.9101148 -383.99370026 70.31160915 -380.05566406 68.62817383 C-375.76792042 66.81035519 -371.50939695 65.38533963 -367.03222656 64.12036133 C-364.07561618 63.20585421 -361.2420154 62.08878814 -358.36816406 60.94067383 C-352.82397667 58.76812598 -347.22170611 57.0259915 -341.50048828 55.40209961 C-335.09817854 53.56300337 -328.80072489 51.45477263 -322.49316406 49.31567383 C-313.37895673 46.24230313 -304.25081047 43.44807073 -294.95410156 40.98706055 C-292.04724061 40.21366004 -289.1452118 39.42334705 -286.24316406 38.63208008 C-276.07566196 35.86573405 -265.89946324 33.13689431 -255.68066406 30.56567383 C-254.94477051 30.3794043 -254.20887695 30.19313477 -253.45068359 30.0012207 C-247.67039336 28.564196 -241.85364022 27.31889604 -236.02734375 26.08325195 C-232.67839127 25.36854203 -229.33528851 24.631877 -225.99316406 23.88598633 C-210.05978591 20.35945013 -194.08908443 17.42175917 -177.97070312 14.87719727 C-174.72324187 14.36208272 -171.47914071 13.82989831 -168.23535156 13.29223633 C-147.7264326 9.94929249 -127.07640697 7.62925087 -106.43066406 5.31567383 C-105.33316833 5.1925885 -105.33316833 5.1925885 -104.21350098 5.0670166 C-69.42293691 1.18556772 -34.98212716 -0.03868259 0 0 Z " fill="#DDDDDD" transform="translate(796.4306640625,74.684326171875)"/>
<path d="M0 0 C0.66795341 0.00011959 1.33590683 0.00023918 2.02410126 0.0003624 C32.69900145 0.00729539 62.8507636 1.35254606 93.3125 5.1875 C94.80199202 5.36534979 96.29156534 5.54252113 97.78125 5.71875 C104.95528873 6.60809364 111.98698307 7.86968397 119.0625 9.34375 C123.15772666 10.1785462 127.27194111 10.8764677 131.39306641 11.5703125 C150.39037147 14.7730694 169.01390279 18.82353806 187.47509766 24.34423828 C190.50363626 25.24430473 193.53824152 26.12146191 196.57421875 26.99609375 C268.81192084 47.91812607 340.04180563 78.94816656 401.46289062 122.87060547 C403.44910838 124.28476314 405.44963235 125.67684232 407.453125 127.06640625 C422.6642672 137.6479195 437.23450456 148.98232684 451.54785156 160.74316406 C453.13656222 162.0434978 454.73563025 163.33115247 456.3359375 164.6171875 C462.28035288 169.40337868 467.93300087 174.42874951 473.5234375 179.6171875 C475.8575955 181.76827429 478.21996617 183.86675658 480.625 185.9375 C483.73919337 188.63432724 486.63423152 191.48766139 489.51953125 194.42578125 C492.0801369 196.94175761 494.79374025 199.2661081 497.51171875 201.609375 C499.5367219 203.38399815 501.44795857 205.24526935 503.3125 207.1875 C501.72071971 211.11320652 499.02055719 213.75390918 496.0607605 216.67974854 C495.52002274 217.22219515 494.97928498 217.76464176 494.42216122 218.32352614 C492.60891438 220.1400674 490.78861144 221.94936772 488.96826172 223.75878906 C487.6670611 225.05942556 486.36630068 226.36050257 485.06594849 227.6619873 C481.53345427 231.19505599 477.99482188 234.72191876 474.45507193 238.24771595 C470.75726067 241.93303558 467.06510198 245.62400928 463.37234497 249.31439209 C456.37821575 256.30230194 449.37900331 263.28509734 442.37795937 270.26607871 C434.40798347 278.21370987 426.44367714 286.16701209 418.47984672 294.1208005 C402.09704084 310.48269401 385.70711256 326.8374374 369.3125 343.1875 C366.53110866 341.84690965 364.50918085 340.62090653 362.359375 338.39453125 C361.82707275 337.85046631 361.29477051 337.30640137 360.74633789 336.74584961 C360.19067139 336.16971924 359.63500488 335.59358887 359.0625 335 C354.31111022 330.16574862 349.4952688 325.5601735 344.3125 321.1875 C343.27630366 320.28895844 342.24125299 319.38909487 341.20703125 318.48828125 C308.91030488 290.43161512 273.19341814 266.94253924 235.07421875 247.59619141 C232.76803171 246.41985661 230.4747076 245.22433312 228.1875 244.01171875 C182.0475149 219.80049784 129.67021654 204.89115748 78.3125 197.1875 C77.39082031 197.04860352 76.46914063 196.90970703 75.51953125 196.76660156 C49.57626039 192.96457049 23.616499 192.00679281 -2.5625 192 C-3.57916748 191.99900299 -4.59583496 191.99800598 -5.64331055 191.99697876 C-25.10495254 191.99914291 -44.13532328 193.0112653 -63.4375 195.5 C-64.74495682 195.66615311 -64.74495682 195.66615311 -66.0788269 195.83566284 C-83.20662221 198.01835775 -100.18235515 200.42607102 -116.82421875 205.13671875 C-120.50052051 206.16600607 -124.20995643 207.00302754 -127.93383789 207.84082031 C-193.74823377 222.7800219 -260.09851512 254.9760748 -312.6875 297.1875 C-313.82916411 298.07753202 -314.972464 298.9654688 -316.1171875 299.8515625 C-328.82889865 309.70880573 -340.96619362 320.15048087 -352.796875 331.05078125 C-353.32917725 331.540625 -353.86147949 332.03046875 -354.40991211 332.53515625 C-355.91714688 333.92367285 -357.42154776 335.31526381 -358.92578125 336.70703125 C-361.43332495 338.95920982 -364.05560329 341.08198263 -366.6875 343.1875 C-410.9075 298.9675 -455.1275 254.7475 -500.6875 209.1875 C-498.85586238 205.52422475 -497.45263559 203.70630724 -494.6171875 200.88671875 C-493.8025 200.07396484 -492.9878125 199.26121094 -492.1484375 198.42382812 C-491.29507812 197.58271484 -490.44171875 196.74160156 -489.5625 195.875 C-488.73234375 195.04548828 -487.9021875 194.21597656 -487.046875 193.36132812 C-482.08560376 188.43505018 -476.99979953 183.73065763 -471.6875 179.1875 C-470.53142921 178.17706452 -469.37645389 177.16537412 -468.22265625 176.15234375 C-453.31372174 163.1318316 -438.05715147 150.71352314 -422.11474609 138.97509766 C-420.56308129 137.8323407 -419.01369429 136.68648018 -417.46728516 135.53662109 C-399.91427551 122.48726496 -381.55784941 110.25301132 -362.61669922 99.30371094 C-361.23030319 98.50155925 -359.84685406 97.69430627 -358.46533203 96.88378906 C-303.38562132 64.57364734 -244.33463378 39.85772175 -182.6875 23.1875 C-181.76807617 22.93838867 -180.84865234 22.68927734 -179.90136719 22.43261719 C-145.39512509 13.20462112 -110.4135407 7.35981883 -74.9375 3.5 C-73.45668442 3.33670197 -73.45668442 3.33670197 -71.94595337 3.17010498 C-47.95276019 0.54607947 -24.12661929 -0.01842579 0 0 Z " fill="#000000" transform="translate(803.6875,479.8125)"/>
<path d="M0 0 C1.33926029 0.63924467 2.67911558 1.27724408 4.01953125 1.9140625 C33.28709063 15.99422691 61.5135608 35.44277798 84 59 C82.59407151 62.18149427 80.92927404 64.31974775 78.47425652 66.77183914 C77.37101376 67.88105504 77.37101376 67.88105504 76.24548328 69.01267934 C75.43420982 69.81812711 74.62293636 70.62357489 73.78707886 71.45343018 C72.92782401 72.31439387 72.06856917 73.17535757 71.1832763 74.06241107 C68.79705679 76.45135754 66.40642591 78.8357291 64.01384091 81.21829033 C61.43491255 83.78858884 58.86175926 86.36465731 56.28790283 88.94003296 C51.827665 93.40131993 47.36377737 97.85892786 42.89739609 102.31406403 C36.43975036 108.75546173 29.98762858 115.20236924 23.53684546 121.65063867 C13.07095187 132.11215406 2.60059893 142.56919451 -7.87255859 153.0234375 C-18.04677504 163.17929838 -28.21889064 173.33725589 -38.38818359 183.49804688 C-39.01492722 184.12426505 -39.64167084 184.75048323 -40.2874067 185.39567772 C-43.43155477 188.53721573 -46.57566155 191.67879509 -49.71974778 194.82039499 C-75.80676435 220.88667517 -101.90101833 246.94570022 -128 273 C-131.18916221 271.59166824 -133.32977966 269.91923485 -135.78745651 267.45863914 C-136.53041717 266.71966058 -137.27337783 265.98068202 -138.03885245 265.21931016 C-139.25286054 263.99656355 -139.25286054 263.99656355 -140.49139404 262.74911499 C-141.35644129 261.88577659 -142.22148854 261.02243819 -143.11274934 260.13293803 C-145.51309727 257.73531712 -147.90887053 255.33328431 -150.30283332 252.92929792 C-152.88540197 250.33809959 -155.47374041 247.75267615 -158.06138611 245.16654968 C-162.54395398 240.68503097 -167.02284282 236.19986231 -171.49925995 231.71220016 C-177.97142681 225.22378543 -184.44910337 218.74089446 -190.92814186 212.25934227 C-201.43957152 201.74353439 -211.94652626 191.22326709 -222.45068359 180.70019531 C-232.65504711 170.47747629 -242.86150722 160.25685806 -253.07080078 150.0390625 C-253.70000595 149.40933188 -254.32921113 148.77960126 -254.97748312 148.13078789 C-258.13400521 144.97165575 -261.29056864 141.8125649 -264.44715261 138.6534946 C-290.63784686 112.4420639 -316.82128602 86.22339574 -343 60 C-342.04876356 58.87948211 -341.09599184 57.76026745 -340.14257812 56.64160156 C-339.61216919 56.01819885 -339.08176025 55.39479614 -338.53527832 54.75250244 C-331.2103714 46.39120594 -321.80433033 39.72416055 -313 33 C-312.4215332 32.55398438 -311.84306641 32.10796875 -311.24707031 31.6484375 C-293.16537707 17.7597478 -273.62521064 6.65504199 -253 -3 C-251.76733398 -3.57790283 -251.76733398 -3.57790283 -250.50976562 -4.16748047 C-172.93386466 -39.95803294 -76.34193903 -37.84199537 0 0 Z " fill="#000000" transform="translate(934,917)"/>
</svg>
