<?xml version="1.0" encoding="UTF-8"?>
<svg version="1.1" xmlns="http://www.w3.org/2000/svg" width="1665" height="1221">
<path d="M0 0 C549.45 0 1098.9 0 1665 0 C1665 402.93 1665 805.86 1665 1221 C1115.55 1221 566.1 1221 0 1221 C0 818.07 0 415.14 0 0 Z " fill="#FEFEFE" transform="translate(0,0)"/>
<path d="M0 0 C4.66338439 0.01145217 9.32654179 0.00455471 13.98991871 -0.00687695 C45.12545854 -0.07156781 76.06714732 1.1534649 107.07348633 4.07324219 C107.97635376 4.15655792 108.87922119 4.23987366 109.80944824 4.32571411 C128.66590666 6.07651915 147.40705646 8.47253733 166.13598633 11.26074219 C166.87046997 11.36964783 167.60495361 11.47855347 168.36169434 11.59075928 C173.41371923 12.34122822 178.46324198 13.10701747 183.51098633 13.88574219 C184.76943359 14.07966553 186.02788086 14.27358887 187.32446289 14.47338867 C195.2736082 15.72960902 203.15572133 17.21507083 211.03845215 18.83407593 C213.30332945 19.294782 215.5703859 19.74334587 217.83813477 20.18969727 C229.51603385 22.49159637 241.14929845 24.9581718 252.76098633 27.57324219 C253.62085144 27.76639008 254.48071655 27.95953796 255.36663818 28.15853882 C270.07082246 31.47084444 284.63553105 35.13868329 299.13598633 39.26074219 C300.40442383 39.61523438 301.67286133 39.96972656 302.97973633 40.33496094 C306.37075648 41.29171305 309.75303806 42.2758332 313.13598633 43.26074219 C314.91190673 43.76637662 316.68796111 44.27154061 318.46411133 44.77636719 C346.60094876 52.81778167 374.22559435 62.51277532 401.57348633 72.91308594 C404.02685586 73.84116981 406.48103986 74.75119289 408.94848633 75.63964844 C417.46607485 78.7278845 425.72958535 82.22161635 433.95922852 86.01391602 C437.95534097 87.85220947 441.95604147 89.61153163 446.05004883 91.22167969 C451.50481297 93.37229404 456.81213393 95.80736683 462.13598633 98.26074219 C464.00380907 99.10726718 465.87229957 99.95232033 467.74145508 100.79589844 C469.60213216 101.63834635 471.46280924 102.48079427 473.32348633 103.32324219 C474.25612305 103.74412109 475.18875977 104.165 476.1496582 104.59863281 C481.53939097 107.04162482 486.86132089 109.57910682 492.13598633 112.26074219 C493.4140918 112.89109375 493.4140918 112.89109375 494.71801758 113.53417969 C498.95217118 115.62530283 503.1286348 117.78712867 507.26098633 120.07324219 C513.77216151 123.65484772 520.42214688 126.94281189 527.07983398 130.24072266 C530.43607136 131.90569057 533.78577521 133.58369109 537.13598633 135.26074219 C538.29098633 135.83824219 539.44598633 136.41574219 540.63598633 137.01074219 C541.46098633 137.42324219 542.28598633 137.83574219 543.13598633 138.26074219 C543.13598633 138.92074219 543.13598633 139.58074219 543.13598633 140.26074219 C543.9790332 140.51082031 544.82208008 140.76089844 545.69067383 141.01855469 C549.45210106 142.37471553 552.81027034 144.14752044 556.26098633 146.13574219 C556.94185303 146.52358887 557.62271973 146.91143555 558.32421875 147.31103516 C570.10233219 154.06140526 581.79117268 161.01274135 593.19848633 168.37402344 C595.58565949 169.90727429 597.98180807 171.42243462 600.38598633 172.92871094 C609.52407645 178.65888202 618.57877946 184.48902313 627.52490234 190.51538086 C628.23316162 190.99209229 628.9414209 191.46880371 629.67114258 191.95996094 C630.29384033 192.38108154 630.91653809 192.80220215 631.55810547 193.23608398 C633.16808185 194.32348243 633.16808185 194.32348243 635.13598633 195.26074219 C635.13598633 195.92074219 635.13598633 196.58074219 635.13598633 197.26074219 C635.79727539 197.47730469 636.45856445 197.69386719 637.13989258 197.91699219 C641.15928565 199.7196926 644.51378489 202.18553638 648.07348633 204.76074219 C649.5812944 205.84147754 651.08910697 206.9222066 652.59692383 208.00292969 C653.72952637 208.81842285 653.72952637 208.81842285 654.88500977 209.65039062 C657.03240942 211.18664313 659.19362324 212.70039658 661.36254883 214.20605469 C662.01102783 214.65916016 662.65950684 215.11226562 663.32763672 215.57910156 C664.55538132 216.43658416 665.78625299 217.28961026 667.02050781 218.13769531 C668.4286289 219.12906587 669.78834178 220.18860659 671.13598633 221.26074219 C671.13598633 221.92074219 671.13598633 222.58074219 671.13598633 223.26074219 C671.82047852 223.48761719 672.5049707 223.71449219 673.21020508 223.94824219 C676.88116818 225.59502938 679.78990859 227.79585432 682.94848633 230.26074219 C683.5459668 230.71191406 684.14344727 231.16308594 684.7590332 231.62792969 C686.25946214 232.78711821 687.70323137 234.01888138 689.13598633 235.26074219 C689.13598633 235.92074219 689.13598633 236.58074219 689.13598633 237.26074219 C689.83852539 237.48890625 690.54106445 237.71707031 691.26489258 237.95214844 C694.71068133 239.52267801 697.27209389 241.71007834 700.07348633 244.19824219 C704.70060005 248.21883784 709.40654664 252.08056752 714.26098633 255.82324219 C719.63795534 259.99115347 724.69947738 264.36771057 729.69067383 268.99511719 C731.80849412 270.9573149 733.95421315 272.87046097 736.13598633 274.76074219 C740.22974474 278.31761425 744.23021069 281.97352594 748.22973633 285.63574219 C750.45949811 287.64972057 752.70717261 289.63127484 754.97583008 291.60058594 C759.84857482 295.85201258 764.53141277 300.29505192 769.22387695 304.74316406 C772.94922374 308.25853018 776.72119766 311.67050076 780.6640625 314.94116211 C782.76705786 316.82649798 784.40619085 319.03671943 786.13598633 321.26074219 C787.12598633 321.92074219 788.11598633 322.58074219 789.13598633 323.26074219 C789.13598633 323.92074219 789.13598633 324.58074219 789.13598633 325.26074219 C789.79598633 325.26074219 790.45598633 325.26074219 791.13598633 325.26074219 C791.13598633 328.26074219 791.13598633 328.26074219 789.56176758 329.90917969 C788.86438477 330.47894531 788.16700195 331.04871094 787.44848633 331.63574219 C783.37178583 335.05815742 779.5195714 338.46208159 776.26098633 342.69824219 C774.00441349 345.41940355 771.57381429 347.52943186 768.87036133 349.78808594 C765.67424562 352.5019049 762.81693452 355.37550954 760.26098633 358.69824219 C758.00441349 361.41940355 755.57381429 363.52943186 752.87036133 365.78808594 C749.67424562 368.5019049 746.81693452 371.37550954 744.26098633 374.69824219 C742.00441349 377.41940355 739.57381429 379.52943186 736.87036133 381.78808594 C733.67424562 384.5019049 730.81693452 387.37550954 728.26098633 390.69824219 C726.00441349 393.41940355 723.57381429 395.52943186 720.87036133 397.78808594 C717.67424562 400.5019049 714.81693452 403.37550954 712.26098633 406.69824219 C710.00441349 409.41940355 707.57381429 411.52943186 704.87036133 413.78808594 C701.67424562 416.5019049 698.81693452 419.37550954 696.26098633 422.69824219 C694.00441349 425.41940355 691.57381429 427.52943186 688.87036133 429.78808594 C685.67424562 432.5019049 682.81693452 435.37550954 680.26098633 438.69824219 C678.00441349 441.41940355 675.57381429 443.52943186 672.87036133 445.78808594 C669.62726905 448.54179267 666.75236917 451.47100167 664.13598633 454.82324219 C662.03129733 457.3883319 659.78370637 459.27495216 657.13598633 461.26074219 C651.66570066 458.72310419 647.53097393 454.94188109 643.69848633 450.32324219 C641.07226269 447.18458467 638.27920488 444.69082541 635.17504883 442.04589844 C633.24115601 440.35281603 631.43430137 438.59600891 629.63598633 436.76074219 C625.36205599 432.41835072 620.88422503 428.19841834 615.89770508 424.68261719 C615.31633789 424.21339844 614.7349707 423.74417969 614.13598633 423.26074219 C614.13598633 422.60074219 614.13598633 421.94074219 614.13598633 421.26074219 C613.55333008 420.99261719 612.97067383 420.72449219 612.37036133 420.44824219 C610.10812032 419.24593228 608.33022315 417.92248306 606.38598633 416.26074219 C605.77239258 415.74511719 605.15879883 415.22949219 604.52661133 414.69824219 C603.13598633 413.26074219 603.13598633 413.26074219 603.13598633 411.26074219 C602.45020508 411.04804688 601.76442383 410.83535156 601.05786133 410.61621094 C597.2403612 408.84525834 594.50442086 406.36153959 591.38598633 403.57324219 C590.13990035 402.48190104 588.89250615 401.39205178 587.64379883 400.30371094 C587.04212891 399.77825684 586.44045898 399.25280273 585.82055664 398.71142578 C581.65129907 395.12103035 577.26609023 391.80372501 572.81176758 388.57714844 C572.07313477 388.03960937 571.33450195 387.50207031 570.57348633 386.94824219 C569.91219727 386.47773438 569.2509082 386.00722656 568.56958008 385.52246094 C567.85995117 384.89791016 567.85995117 384.89791016 567.13598633 384.26074219 C567.13598633 383.60074219 567.13598633 382.94074219 567.13598633 382.26074219 C565.81598633 381.93074219 564.49598633 381.60074219 563.13598633 381.26074219 C563.13598633 380.60074219 563.13598633 379.94074219 563.13598633 379.26074219 C562.43473633 379.02484375 561.73348633 378.78894531 561.01098633 378.54589844 C557.59321602 377.01811796 555.06108415 375.03466407 552.13598633 372.69824219 C545.65235204 367.59376953 538.95374568 362.91257077 532.13598633 358.26074219 C529.98978451 356.76126947 527.84395206 355.26126792 525.69848633 353.76074219 C520.70074262 350.29891971 515.63664356 346.96950789 510.50732422 343.70825195 C506.80822919 341.35224122 503.15696619 338.9368364 499.52612305 336.47705078 C493.04843654 332.09444656 486.48767082 328.07367913 479.65942383 324.25292969 C475.977625 322.18923319 472.36959762 320.011663 468.76098633 317.82324219 C451.01832713 307.11186496 432.71018606 297.45033243 414.1418457 288.2578125 C412.07881132 287.2323217 410.02089096 286.19715375 407.96411133 285.15917969 C401.1996085 281.74876599 394.42602853 278.42025652 387.50317383 275.33886719 C385.38296641 274.37322816 383.3249327 273.33981788 381.26098633 272.26074219 C376.83297779 270.00615536 372.19628777 268.35474342 367.55004883 266.60839844 C364.23634186 265.30035621 361.04052908 263.8519362 357.82348633 262.32324219 C351.18712924 259.2104747 344.40526096 256.65490572 337.52807617 254.14404297 C334.88633502 253.16855619 332.25504379 252.16776134 329.62426758 251.16308594 C316.42286889 246.13340981 303.13463139 241.48988554 289.70532227 237.10693359 C287.52190345 236.38784108 285.34657122 235.65150926 283.17504883 234.89746094 C272.22683345 231.1209417 261.0760117 228.10861348 249.91430664 225.03466797 C247.66674157 224.40858877 245.42656913 223.76676436 243.19067383 223.10058594 C233.77566906 220.29877127 224.24253955 218.16638077 214.65600586 216.04833984 C211.39725294 215.31920009 208.14327268 214.57230044 204.89009094 213.81884766 C186.96802482 209.6727741 169.19771075 206.08659003 150.94799805 203.66455078 C147.24365436 203.13260214 143.57451066 202.45050103 139.89599609 201.76513672 C112.58765033 196.77450936 84.79088058 195.16261088 57.13598633 193.26074219 C55.90526398 193.17224503 54.67454163 193.08374786 53.40652466 192.99256897 C44.00998893 192.33942489 34.65096446 192.09929107 25.22973633 192.09277344 C23.7473546 192.08868808 22.26497341 192.08440536 20.78259277 192.0799408 C16.06704412 192.06844717 11.35154442 192.06975576 6.63598633 192.07324219 C5.83140991 192.07350906 5.0268335 192.07377594 4.19787598 192.0740509 C-20.86548892 192.08450281 -45.8672279 192.24036569 -70.86401367 194.26074219 C-72.05027344 194.35548828 -72.05027344 194.35548828 -73.26049805 194.45214844 C-108.40525757 197.29494421 -143.28334484 202.39362204 -177.86401367 209.26074219 C-178.99709961 209.48197754 -180.13018555 209.70321289 -181.29760742 209.93115234 C-200.6613727 213.72634336 -219.77342458 218.29677536 -238.86401367 223.26074219 C-239.90170898 223.52886719 -240.9394043 223.79699219 -242.00854492 224.07324219 C-261.83222982 229.22364476 -281.34836568 235.45446463 -300.6003418 242.43945312 C-303.21258419 243.38720802 -305.82742268 244.32764639 -308.44213867 245.26855469 C-310.39542681 245.97383221 -312.34855333 246.67955748 -314.30151367 247.38574219 C-315.201521 247.71058594 -316.10152832 248.03542969 -317.02880859 248.37011719 C-322.22657456 250.2593412 -327.37235721 252.24722553 -332.5 254.31884766 C-335.32427852 255.44412562 -338.17065296 256.49818243 -341.02563477 257.54248047 C-346.51315608 259.54997707 -351.88153417 261.60569918 -357.05151367 264.34667969 C-359.07513329 265.36721199 -361.12640376 266.18996469 -363.23901367 267.01074219 C-381.0358444 273.99362081 -398.58238375 282.19280106 -415.37915039 291.31591797 C-419.76311627 293.69424003 -424.2006082 295.93599103 -428.67651367 298.13574219 C-435.56513314 301.5241475 -442.26656297 305.20519569 -448.92578125 309.02392578 C-449.6427417 309.43078613 -450.35970215 309.83764648 -451.09838867 310.25683594 C-451.72970703 310.61962646 -452.36102539 310.98241699 -453.01147461 311.35620117 C-454.9438072 312.29970305 -456.76555572 312.81509568 -458.86401367 313.26074219 C-458.86401367 313.92074219 -458.86401367 314.58074219 -458.86401367 315.26074219 C-459.42797852 315.56254395 -459.99194336 315.8643457 -460.57299805 316.17529297 C-463.1736945 317.57202245 -465.76882804 318.97880166 -468.36401367 320.38574219 C-469.25088867 320.86011719 -470.13776367 321.33449219 -471.05151367 321.82324219 C-475.99254385 324.5117439 -480.47279825 327.37932345 -484.90649414 330.83374023 C-486.88297205 332.27456256 -488.87274756 333.43156754 -491.02807617 334.58496094 C-496.74438677 337.65628341 -502.09239127 341.27528358 -507.47436523 344.88891602 C-509.22636967 346.06475629 -510.98236552 347.23443209 -512.73901367 348.40332031 C-519.08606629 352.64013433 -525.33204722 356.99280945 -531.48266602 361.51196289 C-533.44343399 362.95188302 -535.41435771 364.37162676 -537.40307617 365.77246094 C-546.74574564 372.35963422 -555.82831743 379.26001567 -564.86401367 386.26074219 C-565.4937207 386.74720215 -566.12342773 387.23366211 -566.7722168 387.73486328 C-574.26470489 393.53052319 -581.58235406 399.49219599 -588.78198242 405.64746094 C-591.60036397 408.05155532 -594.4757332 410.37842213 -597.36401367 412.69824219 C-602.75526682 417.08060586 -607.81796296 421.77457285 -612.89916992 426.50683594 C-622.30151367 435.26074219 -622.30151367 435.26074219 -624.86401367 435.26074219 C-625.1637207 436.06705078 -625.1637207 436.06705078 -625.46948242 436.88964844 C-627.47099554 440.29278139 -630.24385819 442.59107566 -633.17651367 445.19824219 C-634.31934898 446.22718224 -635.46128801 447.25711872 -636.60229492 448.28808594 C-637.15353027 448.7829248 -637.70476562 449.27776367 -638.27270508 449.78759766 C-639.7901175 451.19233324 -641.22543647 452.64821396 -642.65698242 454.13964844 C-644.86401367 456.26074219 -644.86401367 456.26074219 -646.86401367 456.26074219 C-647.11151367 456.90011719 -647.35901367 457.53949219 -647.61401367 458.19824219 C-648.86401367 460.26074219 -648.86401367 460.26074219 -650.60361862 461.18974781 C-652.86401367 461.26074219 -652.86401367 461.26074219 -655.38646317 459.35911846 C-656.36389672 458.40541759 -657.32750387 457.43743416 -658.28033447 456.45915222 C-658.81461398 455.93055597 -659.34889349 455.40195972 -659.89936328 454.8573454 C-661.69559129 453.07408825 -663.47331715 451.2734446 -665.25170898 449.47241211 C-666.53201221 448.19397166 -667.81340059 446.91661715 -669.09579468 445.64027405 C-672.58214688 442.16392724 -676.05266845 438.67215446 -679.52037144 435.17721725 C-683.14487395 431.52895088 -686.78269357 427.89401058 -690.41888428 424.25740051 C-696.5236405 418.14801096 -702.6187964 412.0291766 -708.70776367 405.90405273 C-715.75699127 398.81307937 -722.81823701 391.73426428 -729.88671422 384.66248244 C-737.39859471 377.14700772 -744.90281273 369.62392128 -752.40415096 362.09792542 C-754.5720875 359.92374786 -756.74132837 357.75087849 -758.91080475 355.57823753 C-762.31371925 352.16943972 -765.71139247 348.75550168 -769.10499954 345.33743858 C-770.35460703 344.08036494 -771.60593024 342.82499428 -772.85904312 341.57141495 C-774.56259052 339.866618 -776.25988706 338.15584047 -777.95562744 336.44328308 C-778.45872224 335.94260337 -778.96181704 335.44192365 -779.48015714 334.92607182 C-782.86401367 331.48912849 -782.86401367 331.48912849 -782.86401367 329.26074219 C-783.85401367 328.93074219 -784.84401367 328.60074219 -785.86401367 328.26074219 C-785.3434258 324.14336541 -783.2128864 322.27071804 -780.30151367 319.44824219 C-779.39143555 318.56394531 -778.48135742 317.67964844 -777.54370117 316.76855469 C-774.76231715 314.16556847 -771.91719406 311.66602959 -769.01635742 309.19824219 C-765.70967354 306.22162657 -762.62202822 303.02688551 -759.54394531 299.81567383 C-758.35344467 298.5943899 -757.11231557 297.42288184 -755.86401367 296.26074219 C-755.20401367 296.26074219 -754.54401367 296.26074219 -753.86401367 296.26074219 C-753.86401367 295.60074219 -753.86401367 294.94074219 -753.86401367 294.26074219 C-752.26726189 292.84903454 -750.60887765 291.5067475 -748.92651367 290.19824219 C-744.23540549 286.45501558 -739.99576684 282.50166404 -735.80541992 278.21386719 C-733.62378772 276.01906618 -731.40504165 274.03176169 -728.86401367 272.26074219 C-728.20401367 272.26074219 -727.54401367 272.26074219 -726.86401367 272.26074219 C-726.53401367 271.27074219 -726.20401367 270.28074219 -725.86401367 269.26074219 C-723.93041992 267.49902344 -723.93041992 267.49902344 -721.42651367 265.57324219 C-720.52932617 264.87457031 -719.63213867 264.17589844 -718.70776367 263.45605469 C-717.76932617 262.73160156 -716.83088867 262.00714844 -715.86401367 261.26074219 C-714.04817893 259.8274569 -712.2355247 258.39013039 -710.42651367 256.94824219 C-709.62342773 256.31273437 -708.8203418 255.67722656 -707.99291992 255.02246094 C-705.93006903 253.37733257 -705.93006903 253.37733257 -704.46557617 251.83496094 C-702.05083408 249.46144615 -699.35087489 247.45433553 -696.67651367 245.38574219 C-691.2821527 241.18680747 -685.96327951 236.90664645 -680.67651367 232.57324219 C-663.71504575 218.73100775 -663.71504575 218.73100775 -656.86401367 216.26074219 C-656.86401367 215.60074219 -656.86401367 214.94074219 -656.86401367 214.26074219 C-655.21166992 212.99902344 -655.21166992 212.99902344 -652.92651367 211.57324219 C-648.64489076 208.83381521 -644.72246299 205.82096367 -640.80932617 202.58105469 C-638.86401367 201.26074219 -638.86401367 201.26074219 -635.86401367 201.26074219 C-635.86401367 200.60074219 -635.86401367 199.94074219 -635.86401367 199.26074219 C-631.47939829 196.26074219 -631.47939829 196.26074219 -628.86401367 196.26074219 C-628.86401367 195.60074219 -628.86401367 194.94074219 -628.86401367 194.26074219 C-627.05541992 192.92089844 -627.05541992 192.92089844 -624.42651367 191.32324219 C-623.4390918 190.71480469 -622.45166992 190.10636719 -621.43432617 189.47949219 C-620.87519531 189.1353125 -620.31606445 188.79113281 -619.73999023 188.43652344 C-617.61376958 187.10389998 -615.51562134 185.73274957 -613.41870117 184.35449219 C-612.65614014 183.85425537 -611.8935791 183.35401855 -611.10791016 182.83862305 C-609.57953431 181.83442818 -608.05297672 180.82746006 -606.52832031 179.81762695 C-605.82312256 179.35670654 -605.1179248 178.89578613 -604.39135742 178.42089844 C-603.44377563 177.79646851 -603.44377563 177.79646851 -602.47705078 177.15942383 C-600.86401367 176.26074219 -600.86401367 176.26074219 -598.86401367 176.26074219 C-598.86401367 175.60074219 -598.86401367 174.94074219 -598.86401367 174.26074219 C-598.19756836 173.90882813 -597.53112305 173.55691406 -596.84448242 173.19433594 C-590.90948377 170.01516883 -585.19167499 166.62628417 -579.53588867 162.97558594 C-572.51968606 158.47249684 -565.28625576 154.3440206 -558.04101562 150.22412109 C-554.58267107 148.25424352 -551.14746259 146.25317522 -547.73901367 144.19824219 C-546.94495117 143.72 -546.15088867 143.24175781 -545.33276367 142.74902344 C-543.60278026 141.70610622 -541.87368845 140.66170926 -540.14526367 139.61621094 C-533.92952971 135.9151758 -527.60968544 132.5667425 -521.12353516 129.37573242 C-516.29463405 126.99557563 -511.54126432 124.50054575 -506.80151367 121.94824219 C-497.25374169 116.83634747 -487.47820032 112.21607477 -477.68579102 107.59521484 C-475.0082268 106.32894334 -472.33565019 105.05281147 -469.66479492 103.77246094 C-461.49872296 99.86477006 -453.31124564 96.0919915 -444.96557617 92.58105469 C-442.19469909 91.40151255 -439.4667536 90.16093949 -436.73901367 88.88574219 C-423.84619711 82.98049042 -410.48908974 78.05170138 -397.19604492 73.12939453 C-394.4465563 72.10524456 -391.70211071 71.06812132 -388.95776367 70.03027344 C-387.91072266 69.63509521 -386.86368164 69.23991699 -385.78491211 68.83276367 C-383.73549177 68.05910276 -381.68662383 67.28397625 -379.63842773 66.50708008 C-373.83242785 64.32034796 -367.99888349 62.26735929 -362.10571289 60.328125 C-358.49226969 59.13833937 -354.8869725 57.92503094 -351.28198242 56.70996094 C-329.91710451 49.52534777 -308.60509693 42.4621395 -286.66455078 37.21264648 C-285.71717041 36.98488525 -284.76979004 36.75712402 -283.79370117 36.52246094 C-282.96080566 36.32612061 -282.12791016 36.12978027 -281.26977539 35.92749023 C-278.70924621 35.21784895 -276.3229856 34.26205097 -273.86401367 33.26074219 C-272.26869161 32.92404105 -270.66290282 32.63442902 -269.05151367 32.38574219 C-264.4884238 31.6029781 -260.03766465 30.59276226 -255.55151367 29.44824219 C-232.50522765 23.61017756 -209.27892774 19.31547259 -185.86401367 15.26074219 C-184.42260635 15.01009729 -182.98120006 14.75944652 -181.53979492 14.50878906 C-177.64937729 13.83382616 -173.75703386 13.17054128 -169.86401367 12.51074219 C-168.23399414 12.23133789 -168.23399414 12.23133789 -166.57104492 11.94628906 C-148.38166778 8.9147262 -130.04642779 6.83161932 -111.70141602 5.00805664 C-109.67841321 4.80505248 -107.65591826 4.59690668 -105.6340332 4.38305664 C-70.53891927 0.67145985 -35.26522905 -0.08707604 0 0 Z " fill="#DDDDDD" transform="translate(838.864013671875,74.7392578125)"/>
<path d="M0 0 C2.96873728 1.0283661 5.94975792 2.0097881 8.93798828 2.97998047 C21.03050508 6.91028779 32.86900676 11.21759091 44.61962891 16.07421875 C46.70169534 16.92709688 48.7910104 17.75629672 50.88720703 18.57373047 C59.0956151 21.77736986 67.07435595 25.33577731 75.02490234 29.12255859 C82.23584113 32.54377861 89.47746422 35.90175601 96.84033203 38.98388672 C96.84033203 39.64388672 96.84033203 40.30388672 96.84033203 40.98388672 C97.90223755 41.1458252 97.90223755 41.1458252 98.9855957 41.31103516 C102.15851293 42.05888086 104.62884548 43.2391084 107.51611328 44.74951172 C108.59183594 45.31025391 109.66755859 45.87099609 110.77587891 46.44873047 C112.4474707 47.33238281 112.4474707 47.33238281 114.15283203 48.23388672 C115.255625 48.80751953 116.35841797 49.38115234 117.49462891 49.97216797 C122.78392013 52.74470391 127.96230039 55.58666212 132.98754883 58.81347656 C136.28137152 60.89419681 139.68899834 62.77349425 143.09033203 64.67138672 C143.78384766 65.06132813 144.47736328 65.45126953 145.19189453 65.85302734 C148.37459722 67.63643833 151.55239462 69.39923647 154.84033203 70.98388672 C154.84033203 71.64388672 154.84033203 72.30388672 154.84033203 72.98388672 C155.54931641 73.23783203 156.25830078 73.49177734 156.98876953 73.75341797 C160.10462365 75.09793036 162.66776765 76.7523028 165.46533203 78.67138672 C169.25775909 81.24876433 173.06374336 83.76299865 176.96533203 86.17138672 C182.23092354 89.49905525 187.28709576 93.09557665 192.34033203 96.73388672 C193.13068848 97.30131592 193.92104492 97.86874512 194.73535156 98.45336914 C195.85466064 99.26511597 195.85466064 99.26511597 196.99658203 100.09326172 C197.66496094 100.57762695 198.33333984 101.06199219 199.02197266 101.56103516 C200.84033203 102.98388672 200.84033203 102.98388672 202.39306641 104.60205078 C203.90513941 106.24238574 203.90513941 106.24238574 206.84033203 106.98388672 C207.17033203 107.64388672 207.50033203 108.30388672 207.84033203 108.98388672 C209.50509507 109.98705261 211.17227284 110.98621126 212.84033203 111.98388672 C215.28372766 113.79930353 217.65395762 115.7038339 220.02783203 117.60888672 C224.22168953 121.11665784 224.22168953 121.11665784 228.84033203 123.98388672 C228.84033203 124.64388672 228.84033203 125.30388672 228.84033203 125.98388672 C229.50033203 125.98388672 230.16033203 125.98388672 230.84033203 125.98388672 C230.84033203 126.64388672 230.84033203 127.30388672 230.84033203 127.98388672 C231.76845703 128.44794922 231.76845703 128.44794922 232.71533203 128.92138672 C234.09033203 129.60888672 235.46533203 130.29638672 236.84033203 130.98388672 C236.84033203 131.64388672 236.84033203 132.30388672 236.84033203 132.98388672 C237.36626953 133.20173828 237.89220703 133.41958984 238.43408203 133.64404297 C241.75358365 135.49240183 244.49180411 137.93453943 247.34033203 140.42138672 C247.95690674 140.95562256 248.57348145 141.4898584 249.20874023 142.0402832 C258.35260323 149.99815652 267.18747934 158.19705484 275.66064453 166.86669922 C277.65468165 169.01706017 277.65468165 169.01706017 279.84033203 169.98388672 C279.84033203 170.64388672 279.84033203 171.30388672 279.84033203 171.98388672 C280.83033203 172.31388672 281.82033203 172.64388672 282.84033203 172.98388672 C282.51033203 173.97388672 282.18033203 174.96388672 281.84033203 175.98388672 C281.18033203 175.98388672 280.52033203 175.98388672 279.84033203 175.98388672 C279.84033203 176.64388672 279.84033203 177.30388672 279.84033203 177.98388672 C278.48486328 179.31591797 278.48486328 179.31591797 276.65283203 180.79638672 C272.73099612 184.05404074 269.08522134 187.36553062 265.96533203 191.42138672 C263.70875919 194.14254808 261.27815999 196.25257639 258.57470703 198.51123047 C255.37859132 201.22504944 252.52128022 204.09865407 249.96533203 207.42138672 C247.70875919 210.14254808 245.27815999 212.25257639 242.57470703 214.51123047 C239.37859132 217.22504944 236.52128022 220.09865407 233.96533203 223.42138672 C231.70875919 226.14254808 229.27815999 228.25257639 226.57470703 230.51123047 C223.37859132 233.22504944 220.52128022 236.09865407 217.96533203 239.42138672 C215.70875919 242.14254808 213.27815999 244.25257639 210.57470703 246.51123047 C207.37859132 249.22504944 204.52128022 252.09865407 201.96533203 255.42138672 C199.70875919 258.14254808 197.27815999 260.25257639 194.57470703 262.51123047 C191.37859132 265.22504944 188.52128022 268.09865407 185.96533203 271.42138672 C183.70875919 274.14254808 181.27815999 276.25257639 178.57470703 278.51123047 C175.37859132 281.22504944 172.52128022 284.09865407 169.96533203 287.42138672 C167.71101956 290.13982235 165.28418466 292.24816532 162.58251953 294.50341797 C159.1929785 297.38376786 156.30716362 300.28363934 153.84033203 303.98388672 C153.18033203 303.98388672 152.52033203 303.98388672 151.84033203 303.98388672 C151.84033203 304.64388672 151.84033203 305.30388672 151.84033203 305.98388672 C149.34033203 307.60888672 149.34033203 307.60888672 146.84033203 308.98388672 C142.04178622 304.7707844 137.29906718 300.559957 132.84033203 295.98388672 C119.98712107 282.43293819 119.98712107 282.43293819 104.84033203 271.98388672 C104.84033203 271.32388672 104.84033203 270.66388672 104.84033203 269.98388672 C104.28732422 269.73380859 103.73431641 269.48373047 103.16455078 269.22607422 C100.42442514 267.76160371 98.1154273 266.00532821 95.65283203 264.10888672 C61.01540696 237.75657259 23.53476037 216.6904055 -16.15966797 198.98388672 C-17.01786133 198.59652344 -17.87605469 198.20916016 -18.76025391 197.81005859 C-67.57431101 175.87705652 -122.79998953 162.90149697 -176.15966797 158.98388672 C-177.28203857 158.89848633 -178.40440918 158.81308594 -179.56079102 158.72509766 C-192.72805047 157.79808279 -205.90214359 157.74063551 -219.09716797 157.73388672 C-220.28941986 157.73321198 -221.48167175 157.73253723 -222.71005249 157.73184204 C-242.36758805 157.74943967 -261.65937106 158.47159356 -281.15966797 160.98388672 C-281.82732178 161.06874329 -282.49497559 161.15359985 -283.18286133 161.24102783 C-313.04686598 165.05777169 -342.40692465 170.95996443 -371.13452148 180.03393555 C-373.21440969 180.68705838 -375.29853354 181.326796 -377.38598633 181.95532227 C-384.77548951 184.18090422 -392.0100385 186.67715617 -399.22216797 189.42138672 C-400.7917627 190.0145166 -400.7917627 190.0145166 -402.39306641 190.61962891 C-409.37860157 193.27217065 -416.29269777 196.03790408 -423.15966797 198.98388672 C-424.07619141 199.35642578 -424.99271484 199.72896484 -425.93701172 200.11279297 C-440.87024363 206.18630877 -455.41798127 213.18804149 -469.28466797 221.42138672 C-472.15966797 222.98388672 -472.15966797 222.98388672 -475.15966797 222.98388672 C-475.15966797 223.64388672 -475.15966797 224.30388672 -475.15966797 224.98388672 C-475.74490234 225.28939453 -476.33013672 225.59490234 -476.93310547 225.90966797 C-509.89441894 243.47913686 -540.08961394 266.13552186 -567.44482422 291.48779297 C-569.73396128 293.59248158 -572.05194637 295.64457342 -574.40966797 297.67138672 C-578.53128397 301.23883586 -582.35265102 305.08574437 -586.15966797 308.98388672 C-590.08537449 307.39210643 -592.72607715 304.69194391 -595.6519165 301.73214722 C-596.19436311 301.19140946 -596.73680973 300.65067169 -597.29569411 300.09354794 C-599.11223537 298.2803011 -600.92153569 296.45999816 -602.73095703 294.63964844 C-604.03159353 293.33844782 -605.33267054 292.0376874 -606.63415527 290.73733521 C-610.16722396 287.20484099 -613.69408673 283.66620859 -617.21988392 280.12645864 C-620.90520355 276.42864739 -624.59617724 272.7364887 -628.28656006 269.04373169 C-635.27446991 262.04960247 -642.25726531 255.05039003 -649.23824668 248.04934609 C-657.18587783 240.07937018 -665.13918005 232.11506386 -673.09296846 224.15123343 C-689.45486198 207.76842756 -705.80960537 191.37849928 -722.15966797 174.98388672 C-718.72437175 167.76976466 -712.03413774 162.78362953 -706.05029297 157.65966797 C-704.20688237 156.02573585 -702.49450635 154.3184765 -700.78466797 152.54638672 C-698.15966797 149.98388672 -698.15966797 149.98388672 -696.15966797 149.98388672 C-696.15966797 149.32388672 -696.15966797 148.66388672 -696.15966797 147.98388672 C-694.90185547 146.67919922 -694.90185547 146.67919922 -693.03466797 145.10888672 C-692.30248047 144.48755859 -691.57029297 143.86623047 -690.81591797 143.22607422 C-689.50107422 142.11619141 -689.50107422 142.11619141 -688.15966797 140.98388672 C-687.10631129 140.0712919 -686.0543083 139.15713306 -685.00341797 138.24169922 C-677.89889068 132.07013076 -670.65404421 126.12685074 -663.21826172 120.35888672 C-661.24751044 118.82859709 -659.29979506 117.26793066 -657.38232422 115.67138672 C-655.15966797 113.98388672 -655.15966797 113.98388672 -653.15966797 113.98388672 C-653.15966797 113.32388672 -653.15966797 112.66388672 -653.15966797 111.98388672 C-651.14013672 110.31982422 -651.14013672 110.31982422 -648.34716797 108.35888672 C-647.33009766 107.63830078 -646.31302734 106.91771484 -645.26513672 106.17529297 C-644.24033203 105.45212891 -643.21552734 104.72896484 -642.15966797 103.98388672 C-640.49149992 102.75675843 -638.82481933 101.52760539 -637.15966797 100.29638672 C-622.8824579 89.93324134 -608.17813924 80.23421793 -593.15966797 70.98388672 C-592.35948242 70.49033691 -591.55929687 69.99678711 -590.73486328 69.48828125 C-566.80913481 54.78940808 -541.98654406 42.12418302 -516.61621094 30.14599609 C-514.3895441 29.09263352 -512.16663338 28.03181978 -509.94482422 26.96826172 C-502.14496932 23.25315327 -494.2596801 19.98536361 -486.15966797 16.98388672 C-483.97076587 16.15424325 -481.78326481 15.32089407 -479.59716797 14.48388672 C-478.64712891 14.12294922 -477.69708984 13.76201172 -476.71826172 13.39013672 C-474.68729982 12.58756122 -472.66209059 11.76903038 -470.65722656 10.90332031 C-462.2311175 7.28153414 -453.637819 4.3891358 -444.90966797 1.60888672 C-444.16400574 1.36988647 -443.41834351 1.13088623 -442.65008545 0.88464355 C-405.26269268 -11.09646363 -367.72733432 -20.25557254 -328.953125 -26.41357422 C-326.54173807 -26.79659024 -324.13114813 -27.18468478 -321.72167969 -27.57958984 C-235.17290209 -41.62417134 -143.70201396 -35.83275545 0 0 Z " fill="#DDDDDD" transform="translate(1061.15966796875,514.01611328125)"/>
<path d="M0 0 C0.83433563 0.00087616 1.66867126 0.00175232 2.52828979 0.00265503 C47.17607101 0.15534669 92.25471497 10.49616622 132.3125 30.375 C133.21484375 30.81537598 134.1171875 31.25575195 135.046875 31.70947266 C164.28674269 46.06476972 189.48354962 65.36067911 213.3125 87.375 C212.73092244 90.95616615 211.43915065 92.62201855 208.89418697 95.16245651 C208.15719946 95.90541717 207.42021194 96.64837783 206.66089147 97.41385245 C205.84281422 98.22319118 205.02473698 99.0325299 204.18186951 99.86639404 C203.31938553 100.73144129 202.45690156 101.59648854 201.56828171 102.48774934 C199.17017665 104.88994809 196.76550688 107.28521692 194.35786355 109.67783332 C191.76416268 112.2585987 189.17911677 114.84800743 186.59301758 117.43638611 C182.11038089 121.92059711 177.6222769 126.3992754 173.13043022 130.87425995 C166.63595835 137.34436777 160.14977006 143.82272749 153.66558433 150.30314186 C143.14562587 160.81653177 132.61898305 171.32320245 122.08813477 181.82568359 C111.85741097 192.02887729 101.62983759 202.23521194 91.40649414 212.44580078 C90.7765008 213.07500595 90.14650745 213.70421113 89.4974234 214.35248312 C86.33700345 217.50898801 83.17664543 220.66555489 80.0163182 223.82215261 C53.79130738 250.01605494 27.55544722 276.19906829 1.3125 302.375 C-1.86899427 300.96907151 -4.00724775 299.30427404 -6.45933914 296.84925652 C-7.19881641 296.11376135 -7.93829367 295.37826618 -8.70017934 294.62048328 C-9.50562711 293.80920982 -10.31107489 292.99793636 -11.14093018 292.16207886 C-12.00189387 291.30282401 -12.86285757 290.44356917 -13.74991107 289.5582763 C-16.13885754 287.17205679 -18.5232291 284.78142591 -20.90579033 282.38884091 C-23.47608884 279.80991255 -26.05215731 277.23675926 -28.62753296 274.66290283 C-33.08881993 270.202665 -37.54642786 265.73877737 -42.00156403 261.27239609 C-48.44296173 254.81475036 -54.88986924 248.36262858 -61.33813867 241.91184546 C-71.79965406 231.44595187 -82.25669451 220.97559893 -92.7109375 210.50244141 C-102.86679838 200.32822496 -113.02475589 190.15610936 -123.18554688 179.98681641 C-123.81176505 179.36007278 -124.43798323 178.73332916 -125.08317772 178.0875933 C-128.22471573 174.94344523 -131.36629509 171.79933845 -134.50789499 168.65525222 C-160.57417517 142.56823565 -186.63320022 116.47398167 -212.6875 90.375 C-208.40117908 81.41859504 -199.2754536 75.43581829 -191.6875 69.375 C-190.5158787 68.41403721 -189.34535243 67.45173817 -188.17578125 66.48828125 C-179.69248322 59.53863615 -170.9652064 53.22112572 -161.6875 47.375 C-161.09001953 46.99778809 -160.49253906 46.62057617 -159.87695312 46.23193359 C-122.95788821 23.11242145 -81.05339019 7.43595093 -37.6875 2.375 C-36.70881454 2.25532867 -36.70881454 2.25532867 -35.71035767 2.13323975 C-23.78561243 0.68808684 -12.01070961 -0.03138885 0 0 Z " fill="#000000" transform="translate(840.6875,887.625)"/>
</svg>
