<?xml version="1.0" encoding="UTF-8"?>
<svg version="1.1" xmlns="http://www.w3.org/2000/svg" width="1678" height="1183">
<path d="M0 0 C553.74 0 1107.48 0 1678 0 C1678 390.39 1678 780.78 1678 1183 C1124.26 1183 570.52 1183 0 1183 C0 792.61 0 402.22 0 0 Z " fill="#FEFEFE" transform="translate(0,0)"/>
<path d="M0 0 C0.90431511 0.00011959 1.80863022 0.00023918 2.74034882 0.0003624 C41.01387407 0.00676132 78.92768154 1.08389681 117 5.1875 C118.86470947 5.38327637 118.86470947 5.38327637 120.76708984 5.58300781 C141.38206682 7.7496099 141.38206682 7.7496099 150.4375 9.19140625 C155.92361755 10.05763534 161.40508031 10.67989223 166.93115234 11.22680664 C177.05944986 12.23232354 186.7335827 13.53276272 196.53515625 16.2734375 C201.12371 17.48394661 205.72734338 18.16218725 210.42578125 18.79296875 C213 19.1875 213 19.1875 216 20.1875 C218.52026704 20.50217579 221.03776578 20.79012203 223.5625 21.0625 C229.13318157 21.70498361 234.2402819 22.6741269 239.5703125 24.46875 C243.29827638 25.57155603 247.09752752 26.05088316 250.9453125 26.5625 C254.05889197 27.19954951 256.83458216 28.27077912 259.78710938 29.42529297 C263.81947212 30.81419814 267.99923372 31.49105242 272.1875 32.25 C277.36970353 33.19949866 282.12209625 34.1583557 287 36.1875 C290.40292592 37.0156149 293.80945675 37.78233801 297.234375 38.51171875 C301.39999876 39.4433037 305.33032281 40.62979332 309.328125 42.1328125 C315.9455774 44.61104785 322.7100552 46.24251332 329.5703125 47.8984375 C334.9954985 49.254734 339.91141365 50.91350355 344.97119141 53.29052734 C347.86094659 54.56813993 350.80396434 55.2801152 353.875 56 C360.75210069 57.70776612 367.30556442 60.03880512 373.92871094 62.54345703 C378.95955057 64.44456337 384.00808442 66.22031506 389.125 67.875 C393.89001431 69.43604121 398.45222904 71.15018696 402.9921875 73.2734375 C406.2615684 74.76183269 409.62518257 75.96029366 413 77.1875 C413 77.8475 413 78.5075 413 79.1875 C413.6290625 79.28546875 414.258125 79.3834375 414.90625 79.484375 C419.97099274 80.36917945 424.07401704 81.54419204 428.5703125 84 C431.78766826 85.5724697 435.13329843 86.73264278 438.5 87.9375 C444.92574913 90.26186666 450.92505026 93.06513034 456.98046875 96.21899414 C461.71121419 98.64419824 466.49516926 100.59039501 471.5 102.375 C476.29224494 104.09154039 480.5809541 105.90039844 484.78515625 108.7890625 C487.88248952 110.74469797 491.15365388 112.32471193 494.4375 113.9375 C500.24605824 116.79369842 505.9842018 119.75157925 511.6875 122.8125 C518.67499081 126.55310789 525.75228187 129.97329457 533 133.1875 C533 133.8475 533 134.5075 533 135.1875 C534.175625 135.496875 534.175625 135.496875 535.375 135.8125 C539.49227974 137.3742268 542.92952079 139.48839408 546.6328125 141.84765625 C548.80798413 143.07881775 550.5603598 143.73217545 553 144.1875 C553 144.8475 553 145.5075 553 146.1875 C553.86625 146.455625 554.7325 146.72375 555.625 147 C558.91791964 148.15861987 561.91127875 149.56959839 565 151.1875 C565 151.8475 565 152.5075 565 153.1875 C565.86625 153.455625 566.7325 153.72375 567.625 154 C570.91791964 155.15861987 573.91127875 156.56959839 577 158.1875 C577 158.8475 577 159.5075 577 160.1875 C577.78375 160.373125 578.5675 160.55875 579.375 160.75 C582.51384327 161.99471371 584.44894423 163.11239553 587.125 165.0625 C592.39329605 168.88809344 597.91100142 172.22653861 603.5 175.5625 C604.39734863 176.09858887 605.29469727 176.63467773 606.21923828 177.18701172 C610.55018719 179.79501871 610.55018719 179.79501871 615 182.1875 C615 182.8475 615 183.5075 615 184.1875 C615.9075 184.435 616.815 184.6825 617.75 184.9375 C621.23455556 186.27771368 622.41134537 187.58938046 625 190.1875 C626.7810076 191.4217303 628.59585104 192.60822873 630.4375 193.75 C631.36433594 194.32878906 632.29117187 194.90757812 633.24609375 195.50390625 C635.09123645 196.63192966 636.95937688 197.72311919 638.84765625 198.77734375 C639.55792969 199.24269531 640.26820312 199.70804688 641 200.1875 C641 200.8475 641 201.5075 641 202.1875 C641.9075 202.435 642.815 202.6825 643.75 202.9375 C647.16595457 204.25132868 648.54158448 205.56519012 651 208.1875 C653.13309192 209.42262079 653.13309192 209.42262079 655 210.1875 C655 210.8475 655 211.5075 655 212.1875 C655.55558594 212.45691406 656.11117188 212.72632813 656.68359375 213.00390625 C659.20213253 214.29078188 661.62956123 215.68285077 664.0625 217.125 C664.91972656 217.62902344 665.77695313 218.13304687 666.66015625 218.65234375 C668.7506136 220.02387921 670.28054182 221.39785985 672 223.1875 C673.175625 223.868125 673.175625 223.868125 674.375 224.5625 C677.39244259 226.43044065 679.49082403 228.67832403 682 231.1875 C685.1732127 233.75930581 688.508901 236.11992725 691.82910156 238.49707031 C693.19332017 239.47395887 694.55575146 240.45334762 695.91650391 241.43505859 C697.29738427 242.43083288 698.68245106 243.42082911 700.07177734 244.40478516 C701.750797 245.61696167 703.3804608 246.8969297 705 248.1875 C705 248.8475 705 249.5075 705 250.1875 C705.66 250.1875 706.32 250.1875 707 250.1875 C707 250.8475 707 251.5075 707 252.1875 C707.71929688 252.4246875 708.43859375 252.661875 709.1796875 252.90625 C712.44577246 254.39001159 714.51860514 256.23254704 717.125 258.6875 C719.70410479 261.10198108 722.05601611 263.22484407 725 265.1875 C725 265.8475 725 266.5075 725 267.1875 C725.56203125 267.43113281 726.1240625 267.67476563 726.703125 267.92578125 C729.44019785 269.42930936 731.45795941 271.25449748 733.75 273.375 C736.78606987 276.1584334 739.82380967 278.92860838 742.9375 281.625 C747.14952316 285.29133595 751.26268981 289.06345128 755.38671875 292.828125 C758.05339093 295.23570347 760.77221317 297.56788256 763.515625 299.88671875 C765.78548311 301.87583125 767.86652679 304.05402679 770 306.1875 C770.804375 306.80625 771.60875 307.425 772.4375 308.0625 C775.19587682 310.34993444 777.32555915 312.82292186 779.5703125 315.6015625 C781.10625904 317.43643404 781.10625904 317.43643404 784 319.1875 C784 319.8475 784 320.5075 784 321.1875 C784.66 321.1875 785.32 321.1875 786 321.1875 C787.6875 322.9375 787.6875 322.9375 789 325.1875 C788.40115612 329.73023931 785.42439411 332.09798848 782.25 335.125 C781.46109375 335.89360352 781.46109375 335.89360352 780.65625 336.67773438 C779.61125194 337.69557283 778.56318856 338.71027441 777.51196289 339.72167969 C776.07727137 341.11258682 774.66865374 342.53024152 773.26171875 343.94921875 C771 346.1875 771 346.1875 768.5625 348.0625 C765.84133864 350.31907284 763.73131032 352.74967204 761.47265625 355.453125 C758.75883728 358.64924071 755.88523265 361.50655181 752.5625 364.0625 C749.84133864 366.31907284 747.73131032 368.74967204 745.47265625 371.453125 C742.75883728 374.64924071 739.88523265 377.50655181 736.5625 380.0625 C733.84133864 382.31907284 731.73131032 384.74967204 729.47265625 387.453125 C726.75883728 390.64924071 723.88523265 393.50655181 720.5625 396.0625 C717.84133864 398.31907284 715.73131032 400.74967204 713.47265625 403.453125 C710.75883728 406.64924071 707.88523265 409.50655181 704.5625 412.0625 C701.84133864 414.31907284 699.73131032 416.74967204 697.47265625 419.453125 C694.75883728 422.64924071 691.88523265 425.50655181 688.5625 428.0625 C685.84133864 430.31907284 683.73131032 432.74967204 681.47265625 435.453125 C678.75883728 438.64924071 675.88523265 441.50655181 672.5625 444.0625 C669.84298542 446.31770721 667.73383706 448.74401824 665.48046875 451.44921875 C663.45101222 453.83208987 661.24217997 456.00591949 659 458.1875 C658.1028125 459.0846875 658.1028125 459.0846875 657.1875 460 C656.795625 460.391875 656.40375 460.78375 656 461.1875 C649.64249603 458.25219729 644.83439961 453.15618848 640 448.1875 C639.1028125 447.3521875 639.1028125 447.3521875 638.1875 446.5 C637 445.1875 637 445.1875 637 443.1875 C636.41347656 443.10371094 635.82695313 443.01992188 635.22265625 442.93359375 C632.3557747 441.97124862 631.32568571 440.58594339 629.4375 438.25 C627.32468481 435.65721343 625.82453714 434.07052476 623 432.1875 C623 431.5275 623 430.8675 623 430.1875 C622.46375 429.960625 621.9275 429.73375 621.375 429.5 C618.17539839 427.73179911 615.70962777 425.65079797 613 423.1875 C613 422.5275 613 421.8675 613 421.1875 C612.4225 420.919375 611.845 420.65125 611.25 420.375 C608.94449957 419.15820811 606.97943808 417.88416121 605 416.1875 C605 415.5275 605 414.8675 605 414.1875 C604.195625 413.919375 603.39125 413.65125 602.5625 413.375 C601.716875 412.983125 600.87125 412.59125 600 412.1875 C599.67 411.1975 599.34 410.2075 599 409.1875 C598.2575 408.89875 597.515 408.61 596.75 408.3125 C593.30650158 406.9037961 591.59418378 404.83976252 589 402.1875 C581.48044682 395.55182412 573.35447732 389.70434006 565.19873047 383.88500977 C564.39709473 383.30549561 563.59545898 382.72598145 562.76953125 382.12890625 C562.04354736 381.61013916 561.31756348 381.09137207 560.56958008 380.55688477 C560.05161865 380.10498779 559.53365723 379.65309082 559 379.1875 C559 378.5275 559 377.8675 559 377.1875 C557.9790625 376.8471875 557.9790625 376.8471875 556.9375 376.5 C553.3011291 374.87523854 549.97170737 372.85946743 547 370.1875 C547 369.5275 547 368.8675 547 368.1875 C546.27941406 367.93226563 545.55882812 367.67703125 544.81640625 367.4140625 C541.81435745 366.10665151 539.54532978 364.53705588 536.9375 362.5625 C531.83478063 358.75284031 526.60621966 355.2755842 521.23828125 351.8515625 C520.49964844 351.30242187 519.76101563 350.75328125 519 350.1875 C519 349.5275 519 348.8675 519 348.1875 C518.21625 348.001875 517.4325 347.81625 516.625 347.625 C512.2902041 345.90602921 508.92502497 343.48134396 505.171875 340.74609375 C503.09572282 339.16946832 503.09572282 339.16946832 501 338.1875 C501 337.5275 501 336.8675 501 336.1875 C500.28457031 336.08953125 499.56914063 335.9915625 498.83203125 335.890625 C495.5839875 335.08421414 493.46841071 333.78875749 490.6875 331.9375 C487.26416779 329.67847183 483.83547818 327.47499589 480.3125 325.375 C479.219375 324.653125 478.12625 323.93125 477 323.1875 C477 322.5275 477 321.8675 477 321.1875 C476.195625 320.960625 475.39125 320.73375 474.5625 320.5 C470.99716113 319.1864541 467.94300104 317.57506395 464.65625 315.6953125 C461.4434248 313.87156172 458.19300972 312.12087512 454.9375 310.375 C453.81214844 309.77042969 452.68679688 309.16585938 451.52734375 308.54296875 C450.69332031 308.09566406 449.85929687 307.64835937 449 307.1875 C449 306.5275 449 305.8675 449 305.1875 C448.030625 304.960625 447.06125 304.73375 446.0625 304.5 C442.26582232 303.40553029 439.10239525 301.698569 435.69140625 299.73046875 C421.70653472 291.713017 407.16138666 283.72723743 392 278.1875 C392 277.5275 392 276.8675 392 276.1875 C391.360625 276.105 390.72125 276.0225 390.0625 275.9375 C386.58878102 275.08679331 383.59989144 273.73195512 380.359375 272.2421875 C376.96233357 270.72364249 373.49625433 269.45886521 370 268.1875 C370 267.5275 370 266.8675 370 266.1875 C369.40832031 266.07792969 368.81664062 265.96835937 368.20703125 265.85546875 C363.50122573 264.91123697 360.08585707 263.76804131 356 261.1875 C354.40715128 260.75610347 352.81351609 260.32725685 351.21484375 259.91796875 C348.20257085 258.92450308 345.42394174 257.55371438 342.5625 256.1875 C337.71001981 253.8901364 333.25923496 252.21872254 328 251.1875 C328 250.5275 328 249.8675 328 249.1875 C326.948125 249.02314453 326.948125 249.02314453 325.875 248.85546875 C324.92625 248.69691406 323.9775 248.53835938 323 248.375 C322.071875 248.22417969 321.14375 248.07335937 320.1875 247.91796875 C317.02658896 247.1935933 314.18158319 246.18720258 311.16796875 245.0144043 C307.32293753 243.54783665 303.4074675 242.2887006 299.5 241 C298.67757813 240.72736328 297.85515625 240.45472656 297.0078125 240.17382812 C295.00566899 239.51032708 293.00290004 238.8487138 291 238.1875 C291 237.5275 291 236.8675 291 236.1875 C290.38511719 236.12691406 289.77023437 236.06632813 289.13671875 236.00390625 C288.32847656 235.92011719 287.52023437 235.83632813 286.6875 235.75 C285.48673828 235.62818359 285.48673828 235.62818359 284.26171875 235.50390625 C282 235.1875 282 235.1875 279 234.1875 C279 233.5275 279 232.8675 279 232.1875 C278.00355469 232.06246094 277.00710938 231.93742188 275.98046875 231.80859375 C272.00869004 231.23976866 268.1893385 230.28878888 264.3125 229.25 C263.33700195 228.99573242 263.33700195 228.99573242 262.34179688 228.73632812 C259.80659751 228.05665694 257.40893431 227.40404363 255.08203125 226.171875 C251.68993068 224.56810512 248.04351923 224.08137686 244.375 223.375 C237.67971481 222.03529825 231.12039577 220.46296289 224.5625 218.5625 C218.67553276 216.8643242 212.90307293 215.53757781 206.83203125 214.640625 C201.49321234 213.78641397 196.25843475 212.43352041 191 211.1875 C180.89583461 208.80287796 170.82449285 206.70837284 160.54443359 205.2265625 C159.43575928 205.06414062 159.43575928 205.06414062 158.3046875 204.8984375 C157.66515137 204.80868652 157.02561523 204.71893555 156.36669922 204.62646484 C154.35030351 204.25247274 152.35867598 203.74879593 150.37744141 203.21923828 C145.51595939 201.98435612 140.63868321 201.47230658 135.65625 200.96875 C134.68772095 200.86534302 133.71919189 200.76193604 132.72131348 200.65539551 C129.64808005 200.3274073 126.57417339 200.00654987 123.5 199.6875 C119.44720071 199.26688447 115.39528877 198.83882081 111.34375 198.40625 C110.42581665 198.31347778 109.5078833 198.22070557 108.56213379 198.12512207 C104.52851062 197.69387054 100.64203343 197.17169894 96.71264648 196.14868164 C93.47810617 195.31127878 90.57312099 194.83109867 87.25390625 194.58984375 C86.18938232 194.5110498 85.1248584 194.43225586 84.02807617 194.35107422 C82.88443604 194.27646973 81.7407959 194.20186523 80.5625 194.125 C78.70298706 194.0014917 78.70298706 194.0014917 76.8059082 193.87548828 C52.00430192 192.31037598 27.22169885 192.09101015 2.3805275 192.06501007 C0.3550304 192.06255162 -1.67045925 192.05859797 -3.69595337 192.05438232 C-31.03279227 192.01245823 -58.18593086 192.51622565 -85.375 195.5 C-87.49213239 195.72496583 -89.60932092 195.94940393 -91.7265625 196.17333984 C-125.49311594 199.76227592 -125.49311594 199.76227592 -159 205.1875 C-162.22466555 205.72376823 -165.45118953 206.24520976 -168.6796875 206.7578125 C-171.14512383 207.15909904 -171.14512383 207.15909904 -174 208.1875 C-175.72795352 208.25552967 -177.45835365 208.27245645 -179.1875 208.25 C-180.08855469 208.24097656 -180.98960937 208.23195312 -181.91796875 208.22265625 C-182.94857422 208.20525391 -182.94857422 208.20525391 -184 208.1875 C-184 208.8475 -184 209.5075 -184 210.1875 C-190.92279992 211.74435156 -197.78402626 213.20716915 -204.8125 214.1875 C-209.22335546 214.83273305 -213.11562771 215.80242767 -217.28515625 217.33203125 C-221.92377441 218.79369654 -226.68768743 219.73279976 -231.44213867 220.74169922 C-236.02306739 221.71953317 -240.50371543 222.86160396 -245 224.1875 C-246.81192611 224.66883225 -248.62438934 225.1481492 -250.4375 225.625 C-254.24680138 226.65968862 -257.89821829 227.86379288 -261.578125 229.30078125 C-269.01517622 232.02370162 -276.77052583 234.67326337 -284.5625 236.125 C-289.39483272 237.07668312 -293.79944858 239.10804571 -298.31884766 241.00219727 C-303.76879668 243.22732847 -309.14679809 244.4817085 -315 245.1875 C-315 245.8475 -315 246.5075 -315 247.1875 C-315.60585938 247.35765625 -316.21171875 247.5278125 -316.8359375 247.703125 C-325.51154861 250.21237867 -333.65752532 253.60282176 -341.9375 257.1875 C-347.01269243 259.37906037 -352.11032646 261.34512574 -357.32421875 263.17578125 C-361.21430236 264.64663038 -364.94362437 266.42773734 -368.6875 268.234375 C-371 269.1875 -371 269.1875 -374 269.1875 C-374 269.8475 -374 270.5075 -374 271.1875 C-374.845625 271.50203125 -375.69125 271.8165625 -376.5625 272.140625 C-384.22618677 275.01732126 -384.22618677 275.01732126 -391.625 278.5 C-395 280.1875 -395 280.1875 -398 280.1875 C-398 280.8475 -398 281.5075 -398 282.1875 C-400.88859281 283.70057242 -403.61666713 285.07424256 -406.75 286 C-409.76477982 287.10155416 -412.04063953 288.37338308 -414.75 290.0625 C-426.27573529 297.1875 -426.27573529 297.1875 -432 297.1875 C-432 297.8475 -432 298.5075 -432 299.1875 C-433.10859375 299.73019531 -434.2171875 300.27289063 -435.359375 300.83203125 C-436.82302269 301.55447274 -438.2865585 302.27714092 -439.75 303 C-440.47960937 303.35642578 -441.20921875 303.71285156 -441.9609375 304.08007812 C-445.59212228 305.87916513 -448.7606783 307.74380118 -452 310.1875 C-454.359375 311.13671875 -454.359375 311.13671875 -456.75 311.875 C-457.54921875 312.12636719 -458.3484375 312.37773437 -459.171875 312.63671875 C-460.07679688 312.90935547 -460.07679688 312.90935547 -461 313.1875 C-461 313.8475 -461 314.5075 -461 315.1875 C-465.65474354 318.03734298 -469.70139194 319.8898817 -475 321.1875 C-475 321.8475 -475 322.5075 -475 323.1875 C-475.94101562 323.70699219 -476.88203125 324.22648437 -477.8515625 324.76171875 C-479.10955726 325.46582029 -480.36735952 326.17026585 -481.625 326.875 C-482.24246094 327.21466797 -482.85992187 327.55433594 -483.49609375 327.90429688 C-487.74919798 330.2994661 -491.29149041 333.01783368 -495 336.1875 C-500.37931034 339.1875 -500.37931034 339.1875 -503 339.1875 C-503 339.8475 -503 340.5075 -503 341.1875 C-504.155 341.785625 -505.31 342.38375 -506.5 343 C-515.37618016 347.92655911 -523.56484983 354.05881949 -531.8515625 359.90234375 C-532.74536621 360.52931152 -532.74536621 360.52931152 -533.65722656 361.16894531 C-535.28242874 362.3100054 -536.90307594 363.45754512 -538.5234375 364.60546875 C-541 366.1875 -541 366.1875 -543 366.1875 C-543 366.8475 -543 367.5075 -543 368.1875 C-544.32 368.5175 -545.64 368.8475 -547 369.1875 C-547 369.8475 -547 370.5075 -547 371.1875 C-548.34521484 372.42431641 -548.34521484 372.42431641 -550.2109375 373.7890625 C-550.87867188 374.27890625 -551.54640625 374.76875 -552.234375 375.2734375 C-552.94078125 375.78132813 -553.6471875 376.28921875 -554.375 376.8125 C-555.42300781 377.5859375 -555.42300781 377.5859375 -556.4921875 378.375 C-561.73689649 382.1875 -561.73689649 382.1875 -564 382.1875 C-564 382.8475 -564 383.5075 -564 384.1875 C-565.65 384.8475 -567.3 385.5075 -569 386.1875 C-569 386.8475 -569 387.5075 -569 388.1875 C-570.65 388.8475 -572.3 389.5075 -574 390.1875 C-574 390.8475 -574 391.5075 -574 392.1875 C-575.65 392.8475 -577.3 393.5075 -579 394.1875 C-579 394.8475 -579 395.5075 -579 396.1875 C-580.73046875 397.74609375 -580.73046875 397.74609375 -583.1875 399.625 C-587.2779775 402.81798876 -591.2966081 406.07678629 -595.25 409.4375 C-595.7869751 409.89374756 -596.3239502 410.34999512 -596.87719727 410.82006836 C-598.58607643 412.27438554 -600.29307063 413.73089508 -602 415.1875 C-602.62616211 415.72052734 -603.25232422 416.25355469 -603.89746094 416.80273438 C-605.80803181 418.4293665 -607.71683601 420.05804541 -609.625 421.6875 C-610.21700195 422.1918457 -610.80900391 422.69619141 -611.41894531 423.21582031 C-613.61170394 425.09296423 -615.77116712 426.94959445 -617.7734375 429.03125 C-619 430.1875 -619 430.1875 -621 430.1875 C-621 430.8475 -621 431.5075 -621 432.1875 C-622.609375 433.7734375 -622.609375 433.7734375 -624.75 435.5625 C-627.06903702 437.52507727 -629.25219284 439.4463295 -631.375 441.625 C-633 443.1875 -633 443.1875 -635 443.1875 C-635.33 444.1775 -635.66 445.1675 -636 446.1875 C-637.6015625 447.73046875 -637.6015625 447.73046875 -639.625 449.375 C-643.87153297 452.96232388 -647.45237791 456.91926717 -651 461.1875 C-655.29243245 460.71056306 -657.09311944 458.19324008 -660 455.1875 C-661.80905507 453.38815736 -663.61891909 451.58962783 -665.42941284 449.79173279 C-666.51722209 448.71125296 -667.60501526 447.63075693 -668.6927948 446.55024719 C-669.26810629 445.97881296 -669.84341778 445.40737873 -670.43616295 444.81862831 C-683.68258069 431.66064866 -696.91467575 418.48834352 -710.13870049 405.30786037 C-717.78234896 397.69005556 -725.43066643 390.07704756 -733.08984375 382.47485352 C-739.7793117 375.83512833 -746.46002528 369.18674137 -753.13025486 362.52768761 C-756.6600162 359.00445496 -760.19407457 355.48578539 -763.73867416 351.97747612 C-767.06712112 348.68284145 -770.38378358 345.37679921 -773.69159126 342.06144714 C-774.90995321 340.84446583 -776.13263718 339.63179452 -777.35981941 338.42370796 C-779.02909769 336.77915132 -780.68241064 335.1200705 -782.33248901 333.45628357 C-783.26345839 332.52992316 -784.19442776 331.60356276 -785.15360832 330.64913082 C-787 328.1875 -787 328.1875 -786.92453194 326.03788853 C-784.33507447 320.85526346 -780.05572979 317.25202673 -775.68359375 313.61328125 C-773.3123411 311.60514385 -771.17004516 309.41047309 -769 307.1875 C-754.95597484 292.83949161 -754.95597484 292.83949161 -750 291.1875 C-750 290.5275 -750 289.8675 -750 289.1875 C-748.63671875 287.8125 -748.63671875 287.8125 -746.6875 286.1875 C-742.09976372 282.3055693 -737.70985957 278.23111528 -733.3203125 274.12890625 C-731 272.1875 -731 272.1875 -729 272.1875 C-729 271.5275 -729 270.8675 -729 270.1875 C-725.53846154 267.1875 -725.53846154 267.1875 -723 267.1875 C-722.67 266.1975 -722.34 265.2075 -722 264.1875 C-720.0390625 262.3984375 -720.0390625 262.3984375 -717.625 260.5625 C-716.43777344 259.64597656 -716.43777344 259.64597656 -715.2265625 258.7109375 C-713 257.1875 -713 257.1875 -710 256.1875 C-710 255.5275 -710 254.8675 -710 254.1875 C-708.13709447 252.62948899 -706.26847779 251.1832023 -704.3125 249.75 C-698.80771116 245.63820989 -693.53833999 241.33407394 -688.40356445 236.76782227 C-685.42206662 234.17300008 -682.77024018 232.40728359 -679 231.1875 C-679 230.5275 -679 229.8675 -679 229.1875 C-677.03501678 227.80308 -675.02951535 226.47546166 -673 225.1875 C-672.2575 224.61 -671.515 224.0325 -670.75 223.4375 C-669 222.1875 -669 222.1875 -667 222.1875 C-667 221.5275 -667 220.8675 -667 220.1875 C-665.68 219.8575 -664.36 219.5275 -663 219.1875 C-663 218.5275 -663 217.8675 -663 217.1875 C-661.5459375 216.7853125 -661.5459375 216.7853125 -660.0625 216.375 C-658.5465625 215.7871875 -658.5465625 215.7871875 -657 215.1875 C-656.67 214.1975 -656.34 213.2075 -656 212.1875 C-654.37353516 210.76123047 -654.37353516 210.76123047 -652.2890625 209.3046875 C-651.53882813 208.77746094 -650.78859375 208.25023437 -650.015625 207.70703125 C-649.22671875 207.16433594 -648.4378125 206.62164062 -647.625 206.0625 C-646.84382812 205.51207031 -646.06265625 204.96164063 -645.2578125 204.39453125 C-639.42397223 200.32882408 -639.42397223 200.32882408 -636 199.1875 C-635.58878906 198.76855469 -635.17757812 198.34960938 -634.75390625 197.91796875 C-632.12909795 195.32823584 -629.03180483 193.47368171 -625.9375 191.5 C-625.30005859 191.08427734 -624.66261719 190.66855469 -624.00585938 190.24023438 C-619.24880696 187.1875 -619.24880696 187.1875 -617 187.1875 C-617 186.5275 -617 185.8675 -617 185.1875 C-615.015625 183.7421875 -615.015625 183.7421875 -612.25 182.0625 C-608.29242986 179.61974124 -604.40231422 177.12378176 -600.5625 174.5 C-593.49026873 169.75755325 -586.17012241 165.44126441 -578.85546875 161.0859375 C-574.8403365 158.69510521 -570.85062117 156.26844586 -566.875 153.8125 C-565.87210938 153.19375 -564.86921875 152.575 -563.8359375 151.9375 C-562.90007812 151.36 -561.96421875 150.7825 -561 150.1875 C-559.16948232 149.05792435 -557.33632753 147.93260594 -555.5 146.8125 C-554.37078125 146.12027344 -554.37078125 146.12027344 -553.21875 145.4140625 C-550.87097995 144.11617554 -548.49352386 143.17168336 -546 142.1875 C-544.46456126 141.40295036 -542.94304661 140.59048776 -541.4375 139.75 C-540.69371094 139.33878906 -539.94992187 138.92757812 -539.18359375 138.50390625 C-536.95476548 137.23125319 -536.95476548 137.23125319 -534.97265625 135.52734375 C-533 134.1875 -533 134.1875 -529 134.1875 C-529 133.5275 -529 132.8675 -529 132.1875 C-510.57032619 122.34056742 -510.57032619 122.34056742 -504.1875 119.5625 C-500.03464269 117.75440982 -496.19546643 115.56759335 -492.3125 113.25 C-485.32480562 109.10921651 -475.28369562 103.1875 -467 103.1875 C-467 102.5275 -467 101.8675 -467 101.1875 C-464.36 100.5275 -461.72 99.8675 -459 99.1875 C-459 98.5275 -459 97.8675 -459 97.1875 C-456.39802798 96.18144407 -453.79370638 95.18247475 -451.1875 94.1875 C-450.44951172 93.90132813 -449.71152344 93.61515625 -448.95117188 93.3203125 C-448.23896484 93.04960938 -447.52675781 92.77890625 -446.79296875 92.5 C-446.1383667 92.24863281 -445.48376465 91.99726562 -444.80932617 91.73828125 C-443 91.1875 -443 91.1875 -440 91.1875 C-440 90.5275 -440 89.8675 -440 89.1875 C-437.89828133 88.3480118 -435.79353375 87.51610344 -433.6875 86.6875 C-431.92986328 85.99140625 -431.92986328 85.99140625 -430.13671875 85.28125 C-427 84.1875 -427 84.1875 -424 84.1875 C-424 83.5275 -424 82.8675 -424 82.1875 C-419.05 81.1975 -419.05 81.1975 -414 80.1875 C-414 79.5275 -414 78.8675 -414 78.1875 C-412.35 78.1875 -410.7 78.1875 -409 78.1875 C-409 77.5275 -409 76.8675 -409 76.1875 C-406.36 75.8575 -403.72 75.5275 -401 75.1875 C-401 74.5275 -401 73.8675 -401 73.1875 C-390.62642369 68.59524487 -390.62642369 68.59524487 -385 69.1875 C-385 68.5275 -385 67.8675 -385 67.1875 C-382.14646179 66.22726175 -379.29220445 65.26925987 -376.4375 64.3125 C-375.63763672 64.04308594 -374.83777344 63.77367187 -374.01367188 63.49609375 C-361.14043445 59.1875 -361.14043445 59.1875 -357 59.1875 C-357 58.5275 -357 57.8675 -357 57.1875 C-356.33613281 56.99414062 -355.67226563 56.80078125 -354.98828125 56.6015625 C-349.54259578 55.01773105 -349.54259578 55.01773105 -344.25 53 C-341.42191233 51.97874612 -338.98201244 52.04880175 -336 52.1875 C-336 51.5275 -336 50.8675 -336 50.1875 C-335.04480469 49.94515625 -334.08960938 49.7028125 -333.10546875 49.453125 C-327.16366288 47.92115062 -321.29617839 46.39680727 -315.5625 44.1875 C-306.18857104 40.63380156 -296.18739668 38.39057946 -286.30859375 36.77734375 C-283.80080042 36.20807764 -283.80080042 36.20807764 -280.8359375 34.75390625 C-276.43289351 32.80466965 -271.90493923 32.03585815 -267.1875 31.1875 C-259.51193709 29.77285255 -259.51193709 29.77285255 -252 27.6875 C-246.20393379 25.7832269 -240.20077356 24.76747174 -234.21679688 23.6328125 C-233.38857422 23.47425781 -232.56035156 23.31570312 -231.70703125 23.15234375 C-230.60065308 22.94532837 -230.60065308 22.94532837 -229.47192383 22.73413086 C-227.5511234 22.30937312 -225.65293465 21.78184328 -223.76928711 21.21459961 C-219.52077344 20.05691472 -215.3388583 19.39489279 -210.984375 18.7890625 C-209.1997243 18.5312787 -207.4152244 18.27244919 -205.63085938 18.01269531 C-204.706521 17.8786731 -203.78218262 17.74465088 -202.82983398 17.60656738 C-198.13521826 16.91134627 -193.45095249 16.15329918 -188.765625 15.3984375 C-186.85291347 15.09344329 -184.94015273 14.78875746 -183.02734375 14.484375 C-180.1290789 14.02300854 -177.23125567 13.55945495 -174.33447266 13.08886719 C-162.54787952 11.17752776 -150.94230445 9.62734413 -139 9.1875 C-139 8.5275 -139 7.8675 -139 7.1875 C-138.33581055 7.1373877 -137.67162109 7.08727539 -136.98730469 7.03564453 C-133.90775351 6.80011174 -130.82890431 6.55633758 -127.75 6.3125 C-126.70585938 6.23386719 -125.66171875 6.15523437 -124.5859375 6.07421875 C-119.42214096 5.65984002 -114.36605467 5.11993887 -109.26953125 4.18359375 C-102.27921857 2.95854631 -95.27227696 2.58789337 -88.19702148 2.23706055 C-85.99225862 2.12771574 -83.78816173 2.00918769 -81.58398438 1.88867188 C-77.61902709 1.67637749 -73.65331294 1.48762623 -69.68670654 1.30892944 C-67.84858602 1.22585303 -66.01057591 1.14030676 -64.17266846 1.05264282 C-42.78375244 0.0490412 -21.40764749 -0.01255284 0 0 Z " fill="#DDDDDD" transform="translate(835,23.8125)"/>
<path d="M0 0 C4.0022819 0.00568708 8.0044972 0.0023104 12.00677681 -0.00343037 C55.7794836 -0.05707515 55.7794836 -0.05707515 76.31298828 2.56787109 C77.41255859 2.70201416 78.51212891 2.83615723 79.64501953 2.97436523 C81.79616642 3.23771603 83.94691337 3.50436268 86.09716797 3.77490234 C88.47265744 4.07214475 90.84876252 4.3567114 93.22705078 4.63037109 C97.13645751 5.09126957 101.03751964 5.60043473 104.93798828 6.13037109 C106.2325293 6.30125244 106.2325293 6.30125244 107.55322266 6.47558594 C121.70902475 8.37635651 135.63242786 11.01246878 149.56298828 14.13037109 C150.31108765 14.29772766 151.05918701 14.46508423 151.82995605 14.63751221 C158.33729621 16.10058151 164.83788891 17.58413955 171.30029297 19.23583984 C172.36478165 19.50750977 172.36478165 19.50750977 173.45077515 19.78466797 C175.39113429 20.28371784 177.32943864 20.7907379 179.26757812 21.29833984 C181.96330501 21.90942387 184.45807254 22.34725337 187.1862793 22.65454102 C191.26305331 23.17159916 194.19333294 24.47384409 197.93798828 26.13037109 C200.89058301 26.98388182 203.87462846 27.65701336 206.87548828 28.31787109 C207.65472656 28.49511719 208.43396484 28.67236328 209.23681641 28.85498047 C211.13586782 29.28605349 213.03674706 29.70906117 214.93798828 30.13037109 C214.93798828 30.79037109 214.93798828 31.45037109 214.93798828 32.13037109 C216.26830078 32.25412109 216.26830078 32.25412109 217.62548828 32.38037109 C225.50465364 33.50139056 233.16323652 36.38629774 240.55126953 39.27099609 C246.60105852 41.44931619 252.79240136 43.24343724 258.93798828 45.13037109 C258.93798828 45.79037109 258.93798828 46.45037109 258.93798828 47.13037109 C259.79650391 47.24638672 260.65501953 47.36240234 261.53955078 47.48193359 C265.02762689 48.14747455 268.01895191 49.18935172 271.31298828 50.50537109 C273.00101563 51.17246094 273.00101563 51.17246094 274.72314453 51.85302734 C276.31449219 52.4853125 276.31449219 52.4853125 277.93798828 53.13037109 C279.54034747 53.73931534 281.14417317 54.34443997 282.75048828 54.94287109 C284.32830078 55.53068359 284.32830078 55.53068359 285.93798828 56.13037109 C285.93798828 56.79037109 285.93798828 57.45037109 285.93798828 58.13037109 C286.62505859 58.23865234 287.31212891 58.34693359 288.02001953 58.45849609 C291.43260342 59.24425838 294.41360223 60.48483718 297.62548828 61.88037109 C298.76373047 62.37021484 299.90197266 62.86005859 301.07470703 63.36474609 C304.87153006 65.06258587 308.57318166 66.93695577 312.28588867 68.81005859 C314.96394041 70.14329102 317.65978989 71.42923462 320.36767578 72.70068359 C321.71345703 73.33296875 321.71345703 73.33296875 323.08642578 73.97802734 C324.92635659 74.84000066 326.76753496 75.69931529 328.60986328 76.55615234 C329.49931641 76.97509766 330.38876953 77.39404297 331.30517578 77.82568359 C332.10036621 78.19709473 332.89555664 78.56850586 333.71484375 78.95117188 C335.98482239 80.15521282 337.8990117 81.57449325 339.93798828 83.13037109 C341.59237441 83.82695473 343.26053146 84.49133992 344.93798828 85.13037109 C346.94550643 86.11519132 348.94733287 87.11189623 350.93798828 88.13037109 C350.93798828 88.79037109 350.93798828 89.45037109 350.93798828 90.13037109 C351.72173828 90.33662109 352.50548828 90.54287109 353.31298828 90.75537109 C360.29202018 93.40259009 366.38629693 97.7726811 372.62548828 101.81787109 C376.63186843 104.39014926 380.48870021 106.44952893 384.93798828 108.13037109 C384.93798828 108.79037109 384.93798828 109.45037109 384.93798828 110.13037109 C386.25798828 110.46037109 387.57798828 110.79037109 388.93798828 111.13037109 C388.93798828 111.79037109 388.93798828 112.45037109 388.93798828 113.13037109 C389.75976562 113.25605469 389.75976562 113.25605469 390.59814453 113.38427734 C393.70751887 114.37574729 395.79062813 116.08530845 398.37548828 118.06787109 C401.81118918 120.70079348 404.83721146 122.7088677 408.93798828 124.13037109 C408.93798828 124.79037109 408.93798828 125.45037109 408.93798828 126.13037109 C409.71142578 126.50162109 409.71142578 126.50162109 410.50048828 126.88037109 C419.43798828 131.46370443 419.43798828 131.46370443 422.93798828 135.13037109 C425.0378848 136.3061182 425.0378848 136.3061182 426.93798828 137.13037109 C426.93798828 137.79037109 426.93798828 138.45037109 426.93798828 139.13037109 C427.61861328 139.33662109 428.29923828 139.54287109 429.00048828 139.75537109 C432.06278817 141.18878806 434.23554894 143.0024329 436.74267578 145.24365234 C439.42915054 147.55249097 442.239729 149.68133928 445.06298828 151.81787109 C450.39525678 155.86977286 455.54518408 160.09838786 460.62402344 164.46313477 C462.80473065 166.33582661 464.96766223 168.15153883 467.30908203 169.82177734 C467.84662109 170.25361328 468.38416016 170.68544922 468.93798828 171.13037109 C468.93798828 171.79037109 468.93798828 172.45037109 468.93798828 173.13037109 C469.51806641 173.39205078 470.09814453 173.65373047 470.69580078 173.92333984 C473.06897583 175.2008853 474.81807258 176.63623057 476.81298828 178.44287109 C479.30573955 180.68354639 481.81602581 182.85524221 484.43798828 184.94287109 C485.26298828 185.66474609 486.08798828 186.38662109 486.93798828 187.13037109 C486.93798828 187.79037109 486.93798828 188.45037109 486.93798828 189.13037109 C487.74236328 189.47068359 487.74236328 189.47068359 488.56298828 189.81787109 C491.7625899 191.58607199 494.22836051 193.66707312 496.93798828 196.13037109 C496.93798828 196.79037109 496.93798828 197.45037109 496.93798828 198.13037109 C497.89705078 198.53255859 497.89705078 198.53255859 498.87548828 198.94287109 C500.93798828 200.13037109 500.93798828 200.13037109 501.93798828 203.13037109 C502.59798828 203.13037109 503.25798828 203.13037109 503.93798828 203.13037109 C505.56298828 204.38037109 505.56298828 204.38037109 506.93798828 206.13037109 C506.93798828 207.45037109 506.93798828 208.77037109 506.93798828 210.13037109 C505.18017578 211.80615234 505.18017578 211.80615234 502.81298828 213.44287109 C499.08195984 216.17389035 496.17490007 218.92438054 493.27001953 222.50146484 C490.65274539 225.70206108 487.77345016 228.48770811 484.50048828 231.00537109 C481.77932692 233.26194393 479.66929861 235.69254313 477.41064453 238.39599609 C474.69682556 241.5921118 471.82322093 244.4494229 468.50048828 247.00537109 C465.77932692 249.26194393 463.66929861 251.69254313 461.41064453 254.39599609 C458.69682556 257.5921118 455.82322093 260.4494229 452.50048828 263.00537109 C449.77932692 265.26194393 447.66929861 267.69254313 445.41064453 270.39599609 C442.69682556 273.5921118 439.82322093 276.4494229 436.50048828 279.00537109 C433.77932692 281.26194393 431.66929861 283.69254313 429.41064453 286.39599609 C426.69682556 289.5921118 423.82322093 292.4494229 420.50048828 295.00537109 C417.77932692 297.26194393 415.66929861 299.69254313 413.41064453 302.39599609 C410.69682556 305.5921118 407.82322093 308.4494229 404.50048828 311.00537109 C401.77932692 313.26194393 399.66929861 315.69254313 397.41064453 318.39599609 C394.69682556 321.5921118 391.82322093 324.4494229 388.50048828 327.00537109 C385.76682536 329.27231108 383.68369499 331.73051313 381.42626953 334.45458984 C379.48410661 336.64143471 377.24839523 338.34805716 374.93798828 340.13037109 C374.60798828 340.79037109 374.27798828 341.45037109 373.93798828 342.13037109 C369.64874294 341.65157161 367.69481655 339.15844139 364.81298828 336.13037109 C361.70445968 332.68984325 361.70445968 332.68984325 357.93798828 330.13037109 C357.93798828 329.47037109 357.93798828 328.81037109 357.93798828 328.13037109 C357.10267578 327.75912109 357.10267578 327.75912109 356.25048828 327.38037109 C353.51387915 325.90112291 351.26147959 324.1956967 348.93798828 322.13037109 C348.93798828 321.47037109 348.93798828 320.81037109 348.93798828 320.13037109 C348.39013672 319.89060547 347.84228516 319.65083984 347.27783203 319.40380859 C344.37790889 317.82555326 342.0342682 315.87095432 339.50048828 313.75537109 C335.36411949 310.31441341 335.36411949 310.31441341 331.15283203 306.96630859 C328.93798828 305.13037109 328.93798828 305.13037109 327.93798828 303.13037109 C326.94798828 302.80037109 325.95798828 302.47037109 324.93798828 302.13037109 C324.93798828 301.47037109 324.93798828 300.81037109 324.93798828 300.13037109 C324.21611328 299.88287109 323.49423828 299.63537109 322.75048828 299.38037109 C319.66192247 298.00767518 317.42787411 296.40683813 314.93798828 294.13037109 C314.93798828 293.47037109 314.93798828 292.81037109 314.93798828 292.13037109 C312.95798828 291.47037109 310.97798828 290.81037109 308.93798828 290.13037109 C308.93798828 289.47037109 308.93798828 288.81037109 308.93798828 288.13037109 C307.61798828 287.80037109 306.29798828 287.47037109 304.93798828 287.13037109 C304.93798828 286.47037109 304.93798828 285.81037109 304.93798828 285.13037109 C304.25994141 284.89318359 303.58189453 284.65599609 302.88330078 284.41162109 C299.25769179 282.8344331 296.10704472 280.80098092 292.81298828 278.63037109 C292.19294922 278.22689453 291.57291016 277.82341797 290.93408203 277.40771484 C288.25825834 275.6641136 285.59536185 273.90195347 282.93798828 272.13037109 C282.93798828 271.47037109 282.93798828 270.81037109 282.93798828 270.13037109 C282.03048828 269.84162109 281.12298828 269.55287109 280.18798828 269.25537109 C277.6159592 268.36505334 275.32452062 267.41542697 272.93798828 266.13037109 C272.93798828 265.47037109 272.93798828 264.81037109 272.93798828 264.13037109 C272.07173828 263.86224609 271.20548828 263.59412109 270.31298828 263.31787109 C267.02006864 262.15925122 264.02670954 260.7482727 260.93798828 259.13037109 C260.93798828 258.47037109 260.93798828 257.81037109 260.93798828 257.13037109 C260.39706543 256.97036621 259.85614258 256.81036133 259.29882812 256.64550781 C253.32975182 254.78137258 248.03486341 252.25775787 242.56298828 249.25537109 C235.78686856 245.60776218 229.01958782 242.15397539 221.93798828 239.13037109 C221.93798828 238.47037109 221.93798828 237.81037109 221.93798828 237.13037109 C221.25349609 237.01822266 220.56900391 236.90607422 219.86376953 236.79052734 C216.46060523 236.02265716 213.3705573 234.84623162 210.12548828 233.56787109 C208.96404297 233.11283203 207.80259766 232.65779297 206.60595703 232.18896484 C205.72552734 231.83962891 204.84509766 231.49029297 203.93798828 231.13037109 C203.93798828 230.47037109 203.93798828 229.81037109 203.93798828 229.13037109 C203.04660156 228.98341797 203.04660156 228.98341797 202.13720703 228.83349609 C195.43257863 227.62395193 189.27486675 225.61211437 182.93798828 223.13037109 C182.93798828 222.47037109 182.93798828 221.81037109 182.93798828 221.13037109 C182.11298828 221.00662109 181.28798828 220.88287109 180.43798828 220.75537109 C176.54026761 220.05934955 172.77059159 219.12156161 168.93798828 218.13037109 C168.93798828 217.47037109 168.93798828 216.81037109 168.93798828 216.13037109 C168.09880859 216.17935547 167.25962891 216.22833984 166.39501953 216.27880859 C162.40643851 216.10754749 159.37815955 215.10368289 155.62548828 213.75537109 C150.10633321 211.81778815 144.68412106 210.23927391 138.93798828 209.13037109 C138.93798828 208.47037109 138.93798828 207.81037109 138.93798828 207.13037109 C136.29798828 207.13037109 133.65798828 207.13037109 130.93798828 207.13037109 C130.93798828 206.47037109 130.93798828 205.81037109 130.93798828 205.13037109 C130.35791016 205.15357422 129.77783203 205.17677734 129.18017578 205.20068359 C124.23852068 205.31484724 120.62285357 204.8169226 115.93798828 203.13037109 C113.07565095 202.56361199 110.20736199 202.07107358 107.32861328 201.59521484 C104.93798828 201.13037109 104.93798828 201.13037109 102.93798828 200.13037109 C100.72622765 199.77987653 98.50713471 199.47520583 96.28564453 199.19287109 C95.6297081 199.10787354 94.97377167 199.02287598 94.29795837 198.93530273 C92.19922696 198.66355486 90.0999397 198.39649536 88.00048828 198.13037109 C85.90463853 197.86403304 83.80896128 197.59660115 81.71372986 197.32543945 C79.80977683 197.07908073 77.905266 196.83704452 76.00073242 196.59521484 C72.93798828 196.13037109 72.93798828 196.13037109 69.93798828 195.13037109 C67.20389903 194.83516951 64.48355106 194.58600804 61.74267578 194.37646484 C60.48479752 194.27822922 60.48479752 194.27822922 59.20150757 194.17800903 C-8.02623558 189.07058341 -72.90338865 193.70813383 -138.08935547 211.59570312 C-144.06924797 213.21649082 -149.89896799 214.47004498 -156.06201172 215.13037109 C-156.06201172 215.79037109 -156.06201172 216.45037109 -156.06201172 217.13037109 C-156.76326172 217.31212891 -157.46451172 217.49388672 -158.18701172 217.68115234 C-165.65661919 219.66019237 -172.62743145 221.98692045 -179.62451172 225.25537109 C-183.49290294 227.01495182 -186.83823447 227.77090069 -191.06201172 228.13037109 C-191.06201172 228.79037109 -191.06201172 229.45037109 -191.06201172 230.13037109 C-192.12419922 230.51708984 -193.18638672 230.90380859 -194.28076172 231.30224609 C-203.23967639 234.52357613 -203.23967639 234.52357613 -211.87451172 238.50537109 C-215.06201172 240.13037109 -215.06201172 240.13037109 -218.06201172 240.13037109 C-218.06201172 240.79037109 -218.06201172 241.45037109 -218.06201172 242.13037109 C-218.82384766 242.43330078 -219.58568359 242.73623047 -220.37060547 243.04833984 C-226.03083602 245.34493776 -231.43605362 247.75899842 -236.72216797 250.81787109 C-239.43468922 252.33941891 -242.20583802 253.70128422 -244.99951172 255.06787109 C-249.87602568 257.47178642 -254.50453097 260.12807741 -259.10107422 263.02880859 C-261.06201172 264.13037109 -261.06201172 264.13037109 -263.06201172 264.13037109 C-263.06201172 264.79037109 -263.06201172 265.45037109 -263.06201172 266.13037109 C-268.81201172 269.13037109 -268.81201172 269.13037109 -271.06201172 269.13037109 C-271.39201172 270.12037109 -271.72201172 271.11037109 -272.06201172 272.13037109 C-273.71422462 273.13624662 -275.3745231 274.13205344 -277.07910156 275.04638672 C-279.03122801 276.11354277 -280.87904792 277.26818543 -282.73779297 278.48974609 C-283.33785156 278.88291016 -283.93791016 279.27607422 -284.55615234 279.68115234 C-285.78918582 280.49434521 -287.02091759 281.30951464 -288.25146484 282.12646484 C-292.84714201 285.13037109 -292.84714201 285.13037109 -295.06201172 285.13037109 C-295.06201172 285.79037109 -295.06201172 286.45037109 -295.06201172 287.13037109 C-296.67919922 288.35693359 -296.67919922 288.35693359 -298.93701172 289.75537109 C-303.47851689 292.66365358 -307.58248893 295.922146 -311.70263672 299.39599609 C-314.08713211 301.14883707 -316.27735879 302.16265483 -319.06201172 303.13037109 C-319.06201172 303.79037109 -319.06201172 304.45037109 -319.06201172 305.13037109 C-320.71733794 306.14903339 -322.3846131 307.14847922 -324.06201172 308.13037109 C-324.39201172 308.79037109 -324.72201172 309.45037109 -325.06201172 310.13037109 C-325.72201172 310.13037109 -326.38201172 310.13037109 -327.06201172 310.13037109 C-327.06201172 310.79037109 -327.06201172 311.45037109 -327.06201172 312.13037109 C-328.38201172 312.46037109 -329.70201172 312.79037109 -331.06201172 313.13037109 C-331.06201172 313.79037109 -331.06201172 314.45037109 -331.06201172 315.13037109 C-331.72201172 315.13037109 -332.38201172 315.13037109 -333.06201172 315.13037109 C-333.06201172 315.79037109 -333.06201172 316.45037109 -333.06201172 317.13037109 C-334.71201172 317.79037109 -336.36201172 318.45037109 -338.06201172 319.13037109 C-338.06201172 319.79037109 -338.06201172 320.45037109 -338.06201172 321.13037109 C-339.70654297 322.75146484 -339.70654297 322.75146484 -341.87451172 324.56787109 C-344.88664437 327.10376441 -344.88664437 327.10376441 -347.69873047 329.85302734 C-349.06201172 331.13037109 -349.06201172 331.13037109 -351.06201172 331.13037109 C-351.39201172 332.12037109 -351.72201172 333.11037109 -352.06201172 334.13037109 C-353.76904297 335.95458984 -353.76904297 335.95458984 -355.87451172 337.81787109 C-356.90511719 338.75179687 -356.90511719 338.75179687 -357.95654297 339.70458984 C-360.06201172 341.13037109 -360.06201172 341.13037109 -364.06201172 341.13037109 C-365.79479504 340.00297165 -365.79479504 340.00297165 -367.58695984 338.34832764 C-368.63703248 337.38114933 -368.63703248 337.38114933 -369.70831871 336.39443207 C-374.41613029 331.86590076 -379.05208968 327.2698401 -383.6628418 322.64306641 C-384.81163391 321.49399171 -385.96064728 320.34513818 -387.10986328 319.19648743 C-390.20884196 316.09779404 -393.30474112 312.99604073 -396.40007234 309.89370441 C-399.64663977 306.64085438 -402.89606939 303.39086601 -406.14518738 300.14056396 C-412.29156907 293.99108172 -418.43539924 287.83905692 -424.57830209 281.68609977 C-431.56341213 274.6898048 -438.5513672 267.69635444 -445.53956378 260.70314264 C-457.47946052 248.75457613 -469.41721696 236.80387474 -481.35264587 224.85084534 C-481.85497024 224.34778138 -482.3572946 223.84471742 -482.87484092 223.3264091 C-484.21257289 221.98668878 -485.55027869 220.64694233 -486.88798237 219.30719376 C-488.19061338 218.00288905 -489.50939711 216.71400485 -490.85880566 215.45815659 C-492.06201172 214.13037109 -492.06201172 214.13037109 -492.06201172 212.13037109 C-493.05201172 211.80037109 -494.04201172 211.47037109 -495.06201172 211.13037109 C-495.06201172 210.47037109 -495.06201172 209.81037109 -495.06201172 209.13037109 C-495.72201172 209.13037109 -496.38201172 209.13037109 -497.06201172 209.13037109 C-497.06201172 208.14037109 -497.06201172 207.15037109 -497.06201172 206.13037109 C-496.44326172 206.04787109 -495.82451172 205.96537109 -495.18701172 205.88037109 C-492.91810367 205.34439266 -492.91810367 205.34439266 -492.06201172 203.31787109 C-491.73201172 202.59599609 -491.40201172 201.87412109 -491.06201172 201.13037109 C-489.06201172 198.88037109 -489.06201172 198.88037109 -487.06201172 197.13037109 C-486.40201172 197.13037109 -485.74201172 197.13037109 -485.06201172 197.13037109 C-484.79646484 196.53869141 -484.53091797 195.94701172 -484.25732422 195.33740234 C-481.0570426 189.42838563 -474.89821015 185.02215695 -469.85888672 180.70849609 C-468.04233039 179.16235915 -468.04233039 179.16235915 -466.45263672 177.42724609 C-465.06201172 176.13037109 -465.06201172 176.13037109 -463.06201172 176.13037109 C-463.06201172 175.47037109 -463.06201172 174.81037109 -463.06201172 174.13037109 C-459.60047326 171.13037109 -459.60047326 171.13037109 -457.06201172 171.13037109 C-457.06201172 170.47037109 -457.06201172 169.81037109 -457.06201172 169.13037109 C-455.16357422 167.40380859 -455.16357422 167.40380859 -452.68701172 165.50537109 C-451.87490234 164.87373047 -451.06279297 164.24208984 -450.22607422 163.59130859 C-448.06201172 162.13037109 -448.06201172 162.13037109 -446.06201172 162.13037109 C-446.06201172 161.47037109 -446.06201172 160.81037109 -446.06201172 160.13037109 C-443.94482422 158.18505859 -443.94482422 158.18505859 -441.18701172 156.00537109 C-439.82962891 154.91869141 -439.82962891 154.91869141 -438.44482422 153.81005859 C-436.06201172 152.13037109 -436.06201172 152.13037109 -434.06201172 152.13037109 C-434.06201172 151.47037109 -434.06201172 150.81037109 -434.06201172 150.13037109 C-432.16357422 148.62255859 -432.16357422 148.62255859 -429.68701172 147.00537109 C-428.87490234 146.46654297 -428.06279297 145.92771484 -427.22607422 145.37255859 C-425.06201172 144.13037109 -425.06201172 144.13037109 -423.06201172 144.13037109 C-422.69076172 143.17130859 -422.69076172 143.17130859 -422.31201172 142.19287109 C-421.06201172 140.13037109 -421.06201172 140.13037109 -418.93701172 139.38037109 C-418.31826172 139.29787109 -417.69951172 139.21537109 -417.06201172 139.13037109 C-417.06201172 138.47037109 -417.06201172 137.81037109 -417.06201172 137.13037109 C-415.33935547 135.79833984 -415.33935547 135.79833984 -412.99951172 134.31787109 C-409.97195236 132.37431169 -407.01581263 130.39639772 -404.12451172 128.25537109 C-401.06201172 126.13037109 -401.06201172 126.13037109 -399.06201172 126.13037109 C-399.06201172 125.47037109 -399.06201172 124.81037109 -399.06201172 124.13037109 C-397.47314453 122.94116211 -397.47314453 122.94116211 -395.26513672 121.63427734 C-394.47107422 121.15796875 -393.67701172 120.68166016 -392.85888672 120.19091797 C-392.01841797 119.6965625 -391.17794922 119.20220703 -390.31201172 118.69287109 C-388.67030435 117.71682476 -387.02964382 116.73901506 -385.39013672 115.75927734 C-384.29040527 115.11067749 -384.29040527 115.11067749 -383.16845703 114.44897461 C-381.005679 113.14410973 -381.005679 113.14410973 -378.91650391 111.46606445 C-377.06201172 110.13037109 -377.06201172 110.13037109 -375.06201172 110.13037109 C-375.06201172 109.47037109 -375.06201172 108.81037109 -375.06201172 108.13037109 C-373.58764648 107.03637695 -373.58764648 107.03637695 -371.50341797 105.84521484 C-370.34700806 105.17872925 -370.34700806 105.17872925 -369.16723633 104.4987793 C-368.32813721 104.02657959 -367.48903809 103.55437988 -366.62451172 103.06787109 C-365.77445557 102.58342529 -364.92439941 102.09897949 -364.04858398 101.59985352 C-358.23857823 98.30807318 -352.38861515 95.0908599 -346.49951172 91.94287109 C-345.78029541 91.55671631 -345.0610791 91.17056152 -344.32006836 90.77270508 C-339.3061438 88.13037109 -339.3061438 88.13037109 -337.06201172 88.13037109 C-337.06201172 87.47037109 -337.06201172 86.81037109 -337.06201172 86.13037109 C-336.17900391 85.69466797 -335.29599609 85.25896484 -334.38623047 84.81005859 C-328.5899471 81.9370758 -322.83376943 79.04128469 -317.18701172 75.88037109 C-313.60934304 73.89913306 -310.15603356 72.36412854 -306.29638672 71.04833984 C-302.07347624 69.31340284 -298.16489786 66.92306847 -294.21044922 64.65380859 C-291.07827825 63.138242 -288.50184464 62.51257475 -285.06201172 62.13037109 C-285.06201172 61.47037109 -285.06201172 60.81037109 -285.06201172 60.13037109 C-283.81537841 59.62203518 -282.56451785 59.12405964 -281.31201172 58.63037109 C-280.61591797 58.35193359 -279.91982422 58.07349609 -279.20263672 57.78662109 C-277.06201172 57.13037109 -277.06201172 57.13037109 -273.06201172 57.13037109 C-273.06201172 56.47037109 -273.06201172 55.81037109 -273.06201172 55.13037109 C-233.71798553 39.21482281 -233.71798553 39.21482281 -215.24951172 34.06787109 C-211.97722589 33.19437176 -211.97722589 33.19437176 -208.74951172 31.56787109 C-204.18240383 29.7874731 -199.92249047 29.41398052 -195.06201172 29.13037109 C-195.06201172 28.47037109 -195.06201172 27.81037109 -195.06201172 27.13037109 C-189.26558151 25.16571566 -183.45972283 23.7617232 -177.43701172 22.69287109 C-168.2771172 21.05523899 -159.14352404 19.08312584 -150.27539062 16.2355957 C-138.94541652 12.70361055 -127.41231091 11.20342544 -115.68701172 9.56787109 C-111.5951681 8.98805389 -107.50418507 8.40241171 -103.41357422 7.81396484 C-102.42744141 7.67315491 -101.44130859 7.53234497 -100.42529297 7.38726807 C-94.7022044 6.55749224 -89.02442454 5.60438048 -83.35107422 4.48583984 C-76.84033089 3.22081641 -70.4252399 2.45447181 -63.81201172 2.00537109 C-62.85939453 1.93189453 -61.90677734 1.85841797 -60.92529297 1.78271484 C-57.63882918 1.5391148 -54.35127441 1.3326842 -51.06201172 1.13037109 C-49.74507324 1.04062012 -48.42813477 0.95086914 -47.07128906 0.85839844 C-31.39564733 -0.12679009 -15.69915616 -0.02250991 0 0 Z " fill="#DDDDDD" transform="translate(831.06201171875,428.86962890625)"/>
<path d="M0 0 C0.85428589 0.0021048 1.70857178 0.00420959 2.58874512 0.00637817 C42.23720883 0.12073628 42.23720883 0.12073628 51.625 3.25 C53.31073195 3.37967169 54.99883282 3.47937292 56.6875 3.5625 C65.18167652 4.1893765 73.36274632 6.2762394 81.625 8.25 C81.625 8.91 81.625 9.57 81.625 10.25 C82.800625 10.3325 83.97625 10.415 85.1875 10.5 C95.74139984 11.68190361 105.91274889 15.07147336 115.625 19.25 C117.43552157 19.98406534 119.24801923 20.71327641 121.0625 21.4375 C122.26712891 21.92283203 122.26712891 21.92283203 123.49609375 22.41796875 C125.18697271 23.07880768 126.90273353 23.67591118 128.625 24.25 C128.625 24.91 128.625 25.57 128.625 26.25 C129.32625 26.37375 130.0275 26.4975 130.75 26.625 C133.80156387 27.28838345 136.67840938 28.22211955 139.625 29.25 C139.625 29.91 139.625 30.57 139.625 31.25 C140.46289062 31.50136719 141.30078125 31.75273438 142.1640625 32.01171875 C145.97475839 33.37513929 149.4563281 35.13241611 153 37.0625 C153.6590332 37.41707275 154.31806641 37.77164551 154.99707031 38.13696289 C158.52608111 40.0516297 161.98526527 42.03268722 165.375 44.1875 C168.46138737 46.32953317 168.46138737 46.32953317 171.625 47.25 C171.625 47.91 171.625 48.57 171.625 49.25 C172.346875 49.518125 173.06875 49.78625 173.8125 50.0625 C176.62266383 51.24901362 179.10916557 52.52485639 181.625 54.25 C181.625 54.91 181.625 55.57 181.625 56.25 C182.16125 56.4975 182.6975 56.745 183.25 57 C190.0006455 60.55297132 195.73274934 65.45420375 201.625 70.25 C202.27726562 70.76433594 202.92953125 71.27867187 203.6015625 71.80859375 C204.98061181 72.90987247 206.30978277 74.07322668 207.625 75.25 C207.625 75.91 207.625 76.57 207.625 77.25 C208.19863281 77.51039063 208.77226563 77.77078125 209.36328125 78.0390625 C211.7994207 79.34338587 213.71806786 80.82528158 215.8125 82.625 C216.50730469 83.21023438 217.20210937 83.79546875 217.91796875 84.3984375 C219.74901235 86.38451225 220.23574192 87.61234076 220.625 90.25 C220.11710937 90.67410156 219.60921875 91.09820313 219.0859375 91.53515625 C215.02448663 94.99575577 211.39309768 98.51242658 207.9921875 102.62109375 C205.32925367 105.7937892 202.46845871 108.60118561 199.1875 111.125 C196.46633864 113.38157284 194.35631032 115.81217204 192.09765625 118.515625 C189.38383728 121.71174071 186.51023265 124.56905181 183.1875 127.125 C180.46633864 129.38157284 178.35631032 131.81217204 176.09765625 134.515625 C173.38383728 137.71174071 170.51023265 140.56905181 167.1875 143.125 C164.46633864 145.38157284 162.35631032 147.81217204 160.09765625 150.515625 C157.38383728 153.71174071 154.51023265 156.56905181 151.1875 159.125 C148.46633864 161.38157284 146.35631032 163.81217204 144.09765625 166.515625 C141.38383728 169.71174071 138.51023265 172.56905181 135.1875 175.125 C132.46633864 177.38157284 130.35631032 179.81217204 128.09765625 182.515625 C125.38383728 185.71174071 122.51023265 188.56905181 119.1875 191.125 C116.46633864 193.38157284 114.35631032 195.81217204 112.09765625 198.515625 C109.38383728 201.71174071 106.51023265 204.56905181 103.1875 207.125 C100.46633864 209.38157284 98.35631032 211.81217204 96.09765625 214.515625 C93.38383728 217.71174071 90.51023265 220.56905181 87.1875 223.125 C84.46633864 225.38157284 82.35631032 227.81217204 80.09765625 230.515625 C77.38383728 233.71174071 74.51023265 236.56905181 71.1875 239.125 C68.46633864 241.38157284 66.35631032 243.81217204 64.09765625 246.515625 C61.38383728 249.71174071 58.51023265 252.56905181 55.1875 255.125 C52.46633864 257.38157284 50.35631032 259.81217204 48.09765625 262.515625 C45.38383728 265.71174071 42.51023265 268.56905181 39.1875 271.125 C36.46633864 273.38157284 34.35631032 275.81217204 32.09765625 278.515625 C29.38383728 281.71174071 26.51023265 284.56905181 23.1875 287.125 C20.47092794 289.37776707 18.3641761 291.80806998 16.1015625 294.5 C14.05680445 296.92341694 12.02154197 299.1687925 9.625 301.25 C5.08722823 301.25 4.85722427 300.98275516 1.83475018 297.96590805 C1.09117282 297.23337838 0.34759546 296.50084871 -0.41851455 295.74612117 C-1.63354582 294.51872875 -1.63354582 294.51872875 -2.87312317 293.26654053 C-3.73887598 292.40773324 -4.6046288 291.54892596 -5.49661654 290.66409421 C-7.90262616 288.27325424 -10.29930712 285.87370255 -12.69249237 283.47006536 C-15.27356393 280.88202136 -17.86607118 278.30547745 -20.4571228 275.72743225 C-25.53289834 270.67333401 -30.59769235 265.6083664 -35.65857241 260.5393571 C-39.77031316 256.42132513 -43.8857432 252.30701526 -48.00385094 248.19535065 C-48.58919892 247.61090432 -49.17454691 247.02645799 -49.77763271 246.42430116 C-50.96663362 245.23715139 -52.15564023 244.05000733 -53.3446525 242.86286893 C-64.50181816 231.7222944 -75.64628496 220.5690842 -86.78673651 209.41179934 C-96.98891806 199.194916 -107.20569582 188.99277594 -117.42963592 178.7976701 C-127.91791481 168.33875191 -138.39698713 157.87069512 -148.8658163 147.39230752 C-150.04893944 146.20816178 -151.23207659 145.02403002 -152.41522789 143.83991241 C-153.28850993 142.96591579 -153.28850993 142.96591579 -154.17943403 142.07426266 C-158.29039959 137.96112878 -162.40733248 133.85402627 -166.52665138 129.74925995 C-171.54355687 124.74983066 -176.55162922 119.74175591 -181.54838011 114.72217956 C-184.09994405 112.15943108 -186.65542201 109.60092785 -189.22182655 107.05303383 C-191.99873537 104.29589774 -194.75616682 101.51980848 -197.51179504 98.74139404 C-198.3329695 97.93205532 -199.15414395 97.12271659 -200.00020248 96.28885245 C-201.09601041 95.17441146 -201.09601041 95.17441146 -202.21395588 94.03745651 C-202.85313523 93.39800748 -203.49231457 92.75855844 -204.15086299 92.09973216 C-205.375 90.25 -205.375 90.25 -205.16240901 88.12265897 C-204.23820003 85.92465486 -203.231906 84.7355248 -201.375 83.25 C-200.715 83.25 -200.055 83.25 -199.375 83.25 C-199.375 82.59 -199.375 81.93 -199.375 81.25 C-197.73046875 79.55859375 -197.73046875 79.55859375 -195.5625 77.6875 C-194.50095703 76.75744141 -194.50095703 76.75744141 -193.41796875 75.80859375 C-191.375 74.25 -191.375 74.25 -188.375 73.25 C-188.375 72.59 -188.375 71.93 -188.375 71.25 C-187.03662109 69.98828125 -187.03662109 69.98828125 -185.1484375 68.5625 C-184.45298828 68.03333984 -183.75753906 67.50417969 -183.04101562 66.95898438 C-182.28498047 66.39501953 -181.52894531 65.83105469 -180.75 65.25 C-179.98107422 64.67056641 -179.21214844 64.09113281 -178.41992188 63.49414062 C-176.07849808 61.73662268 -173.72873759 59.99098358 -171.375 58.25 C-170.7037207 57.75242187 -170.03244141 57.25484375 -169.34082031 56.7421875 C-151.05287622 43.25 -151.05287622 43.25 -146.375 43.25 C-146.375 42.59 -146.375 41.93 -146.375 41.25 C-145.46621094 40.81300781 -145.46621094 40.81300781 -144.5390625 40.3671875 C-140.01686112 38.15478744 -135.64792127 35.85298898 -131.375 33.1875 C-124.84694156 29.20497378 -118.05275785 26.05818504 -110.375 25.25 C-110.375 24.59 -110.375 23.93 -110.375 23.25 C-108.065 22.92 -105.755 22.59 -103.375 22.25 C-103.375 21.59 -103.375 20.93 -103.375 20.25 C-99.49815913 19.05712589 -96.45878077 18.25 -92.375 18.25 C-92.375 17.59 -92.375 16.93 -92.375 16.25 C-89.35513588 14.8861904 -86.41565604 13.99361803 -83.1875 13.3125 C-79.9865415 12.63446445 -76.87714446 11.83759855 -73.75 10.875 C-72.90308594 10.61976563 -72.05617188 10.36453125 -71.18359375 10.1015625 C-69.21373371 9.50430313 -67.2478739 8.89376545 -65.28515625 8.2734375 C-56.05698423 5.55377376 -46.93491967 4.29820149 -37.38256836 3.2890625 C-32.75986499 2.79811716 -28.28309998 2.27118933 -23.76171875 1.1796875 C-15.97836304 -0.45752519 -7.91634824 -0.04788649 0 0 Z " fill="#DDDDDD" transform="translate(828.375,836.75)"/>
</svg>
