<svg width="64" height="64" viewBox="0 0 64 64" fill="none" xmlns="http://www.w3.org/2000/svg">
  <!-- Background -->
  <rect width="64" height="64" rx="12" fill="#4A5568"/>
  
  <!-- Keyboard base -->
  <rect x="8" y="16" width="48" height="32" rx="4" fill="#2D3748"/>
  
  <!-- Key rows -->
  <!-- Top row -->
  <rect x="12" y="20" width="6" height="4" rx="1" fill="#718096"/>
  <rect x="20" y="20" width="6" height="4" rx="1" fill="#718096"/>
  <rect x="28" y="20" width="6" height="4" rx="1" fill="#718096"/>
  <rect x="36" y="20" width="6" height="4" rx="1" fill="#718096"/>
  <rect x="44" y="20" width="6" height="4" rx="1" fill="#718096"/>
  
  <!-- Middle row -->
  <rect x="16" y="26" width="6" height="4" rx="1" fill="#718096"/>
  <rect x="24" y="26" width="6" height="4" rx="1" fill="#718096"/>
  <rect x="32" y="26" width="6" height="4" rx="1" fill="#718096"/>
  <rect x="40" y="26" width="6" height="4" rx="1" fill="#718096"/>
  
  <!-- Bottom row -->
  <rect x="14" y="32" width="8" height="4" rx="1" fill="#718096"/>
  <rect x="24" y="32" width="6" height="4" rx="1" fill="#718096"/>
  <rect x="32" y="32" width="6" height="4" rx="1" fill="#718096"/>
  <rect x="40" y="32" width="10" height="4" rx="1" fill="#718096"/>
  
  <!-- Space bar -->
  <rect x="16" y="38" width="32" height="6" rx="2" fill="#4A5568"/>
</svg>
