<?xml version="1.0" encoding="utf-8"?>
<!-- Generator: Adobe Illustrator 19.0.0, SVG Export Plug-In . SVG Version: 6.00 Build 0)  -->
<svg version="1.1" id="Layer_1" xmlns="http://www.w3.org/2000/svg" xmlns:xlink="http://www.w3.org/1999/xlink" x="0px" y="0px"
	 viewBox="0 0 512 512" style="enable-background:new 0 0 512 512;" xml:space="preserve">
<g id="XMLID_1_">
	<path id="XMLID_6_" d="M405.7,136.7H51.2C22.8,136.7,0,159.5,0,187.9v136.3c0,28.4,22.8,51.2,51.2,51.2h354.5
		c28.4,0,51.2-22.8,51.2-51.2V187.9C456.9,160.3,433.2,136.7,405.7,136.7z M426.9,324.9c0,11.8-9.5,21.3-21.3,21.3H51.2
		c-11.8,0-21.3-9.5-21.3-21.3V187.9c0-11.8,9.5-21.3,21.3-21.3h354.5c11.8,0,21.3,9.5,21.3,21.3V324.9z M478.1,201.3v110.3
		c17.3,0,33.9-29.9,33.9-55.1S494.7,201.3,478.1,201.3L478.1,201.3z"/>
	<path id="XMLID_7_" d="M392.3,187.9H63.8c-7.1,0-12.6,5.5-12.6,12.6v111.1c0,7.1,5.5,12.6,12.6,12.6h328.5
		c7.1,0,12.6-5.5,12.6-12.6V201.3C405.7,194.2,399.4,187.9,392.3,187.9z"/>
</g>
</svg>
